<svg xmlns="http://www.w3.org/2000/svg" width="64.428" height="64.428" viewBox="0 0 64.428 64.428"><defs><style>.a{fill:#59ada9;}</style></defs><path class="a" d="M30.651,248.45,16.1,240.137a1.038,1.038,0,0,0-1.031,0L.524,248.45a1.038,1.038,0,0,0-.524.9V263.9a1.038,1.038,0,0,0,.524.9l14.548,8.313a1.038,1.038,0,0,0,1.031,0L30.651,264.8a1.038,1.038,0,0,0,.524-.9V249.352A1.038,1.038,0,0,0,30.651,248.45Zm-15.064-6.214,12.453,7.116-12.453,7.116L3.134,249.352ZM2.078,251.143l12.47,7.125v12.155L2.078,263.3Zm14.548,19.28V258.268l12.47-7.125V263.3Zm0,0" transform="translate(0 -208.825)"/><path class="a" d="M286.651,248.45,272.1,240.137a1.038,1.038,0,0,0-1.031,0l-14.548,8.313a1.038,1.038,0,0,0-.524.9V263.9a1.038,1.038,0,0,0,.524.9l14.548,8.313a1.038,1.038,0,0,0,1.031,0l14.548-8.313a1.038,1.038,0,0,0,.524-.9V249.352A1.038,1.038,0,0,0,286.651,248.45Zm-15.064-6.214,12.453,7.116-12.453,7.116-12.453-7.116Zm-13.509,8.907,12.47,7.125v12.155l-12.47-7.125Zm14.548,19.28V258.268l12.47-7.125V263.3Zm0,0" transform="translate(-222.747 -208.825)"/><path class="a" d="M132.734,33.735l9.456-5.4a3.106,3.106,0,1,0,3.062-5.279v-8.7a3.108,3.108,0,1,0-3.061-5.279l-9.464-5.408a3.171,3.171,0,0,0,.055-.552,3.117,3.117,0,1,0-6.235,0,3.106,3.106,0,0,0,.056.553L117.14,9.078a3.106,3.106,0,1,0-3.062,5.279v8.7a3.108,3.108,0,1,0,3.061,5.279l9.457,5.4a3.1,3.1,0,0,0,6.138,0Zm-2.03-3.408V22.669a3.055,3.055,0,0,0,2.022-3.479l9.464-5.407a3.106,3.106,0,0,0,.983.573v8.7a3.055,3.055,0,0,0-2.022,3.479l-8.858,5.061A3.1,3.1,0,0,0,130.7,30.327Zm-3.668,1.266-8.858-5.061a3.055,3.055,0,0,0-2.022-3.479v-8.7a3.088,3.088,0,0,0,.983-.573L126.6,19.19a3.224,3.224,0,0,0-.055.554,3.113,3.113,0,0,0,2.078,2.926v7.658A3.1,3.1,0,0,0,127.037,31.593Zm14.116-19.61-9.464,5.407a3.057,3.057,0,0,0-4.045,0l-9.464-5.407a3.2,3.2,0,0,0,.055-.553,3.106,3.106,0,0,0-.056-.553l9.464-5.407a3.057,3.057,0,0,0,4.045,0l9.464,5.407a3.2,3.2,0,0,0-.055.553A3.106,3.106,0,0,0,141.153,11.984Zm-11.487,8.8a1.039,1.039,0,1,1,1.039-1.039A1.041,1.041,0,0,1,129.666,20.783Zm14.548,6.235a1.039,1.039,0,1,1,1.039-1.039A1.041,1.041,0,0,1,144.214,27.018Zm0-16.627a1.039,1.039,0,1,1-1.039,1.039A1.041,1.041,0,0,1,144.214,10.392ZM129.666,2.078a1.039,1.039,0,1,1-1.039,1.039A1.041,1.041,0,0,1,129.666,2.078Zm-14.548,8.313a1.039,1.039,0,1,1-1.039,1.039A1.041,1.041,0,0,1,115.117,10.392Zm0,16.627a1.039,1.039,0,1,1,1.039-1.039A1.041,1.041,0,0,1,115.117,27.018Zm14.548,7.274a1.039,1.039,0,1,1,1.039-1.039A1.041,1.041,0,0,1,129.666,34.292Zm0,0" transform="translate(-97.452 0)"/></svg>