<svg xmlns="http://www.w3.org/2000/svg" width="245" height="39.266" viewBox="0 0 245 39.266"><defs><style>.a{fill:#e5dede;}</style></defs><g transform="translate(-12.674 -46)"><path class="a" d="M26.113,46a7.5,7.5,0,0,0-7,5.593l-6.3,28.062a4.4,4.4,0,0,0,4.493,5.61h1.163l3.494-17.388h7.646l-.092.449h0a5.444,5.444,0,0,0,4.711,4.758c3.821.789,7.6-1.776,9.1-5.207H52.2q-.076.29-.164.579C49.632,75.944,41.675,81.894,33.6,80.214a13.664,13.664,0,0,1-5.942-2.822l-1.6,7.856H48.083a7.491,7.491,0,0,0,7-5.61l6.3-28.062A4.366,4.366,0,0,0,56.9,46H34.058l-1.092,5.4a15.713,15.713,0,0,1,8.684-.777A13.958,13.958,0,0,1,52.568,62.565H43.7a6.21,6.21,0,0,0-4.8-4.43c-3.313-.684-6.614,1.453-8.276,4.438H22.767a.31.31,0,0,1,.034-.168L26.349,46Z"/><path class="a" d="M519.064,69.157a12.465,12.465,0,0,0-1.482.059.84.84,0,0,0-.554.714q-2.058,9.658-4.1,19.379c-.046.248-.118.558.084.76a1.369,1.369,0,0,0,.894.206h2.318a.84.84,0,0,0,.764-.756q2.066-9.738,4.123-19.475a.621.621,0,0,0-.554-.84C520.068,69.178,519.56,69.161,519.064,69.157Z" transform="translate(-290.165 -13.432)"/><path class="a" d="M267.277,82.438h-.613a10,10,0,0,0-7.5,4.455,8.444,8.444,0,0,0-1.444,6.408,5.879,5.879,0,0,0,3.569,4.266,7.869,7.869,0,0,0,3.943.37,10.078,10.078,0,0,0,5.765-3.3c.21-.26.5-.579.361-.936a1.68,1.68,0,0,0-.722-.579c-.571-.307-1.117-.659-1.7-.945a.747.747,0,0,0-.84.206,5.879,5.879,0,0,1-2,1.306,3.359,3.359,0,0,1-3.334-.563,2.939,2.939,0,0,1-.84-2.557,4.716,4.716,0,0,1,4.77-4.027,3.044,3.044,0,0,1,2.058.878c.294.29.726.663,1.146.365.785-.466,1.537-1,2.309-1.486.332-.2.63-.617.42-1a5.237,5.237,0,0,0-1.3-1.516,6.3,6.3,0,0,0-4.04-1.344Z" transform="translate(-142.07 -21.136)"/><path class="a" d="M578.094,82.989a5.7,5.7,0,0,0-3.359.882c-.034-.26-.126-.588-.42-.6-.894-.05-1.793-.025-2.687,0a.84.84,0,0,0-.76.768c-.949,4.493-1.915,8.982-2.851,13.479a.584.584,0,0,0,.487.789c.722.055,1.449,0,2.175.025a2.309,2.309,0,0,0,1.029-.122,1,1,0,0,0,.42-.705c.546-2.629,1.1-5.253,1.646-7.877a3.25,3.25,0,0,1,1.948-2.247,8.616,8.616,0,0,1,2.826-.256.815.815,0,0,0,.684-.756c.181-.907.42-1.806.563-2.713a.525.525,0,0,0-.474-.609A9.412,9.412,0,0,0,578.094,82.989Z" transform="translate(-322.128 -21.453)"/><path class="a" d="M227.844,83.079a6.655,6.655,0,0,0-3.242.8c-.05-.223-.1-.5-.374-.533-.865-.05-1.73,0-2.6,0a.815.815,0,0,0-.84.684c-.957,4.489-1.9,8.982-2.851,13.471-.038.248-.118.558.076.768s.6.206.907.214h2.318a.84.84,0,0,0,.764-.768q.815-3.893,1.621-7.781a3.3,3.3,0,0,1,3.7-2.687,2.011,2.011,0,0,1,1.457,1.167A2.763,2.763,0,0,1,228.873,90q-.794,3.754-1.583,7.508a.84.84,0,0,0,.08.743.987.987,0,0,0,.773.214h2.448a.81.81,0,0,0,.756-.705c.571-2.687,1.134-5.379,1.7-8.071a6.617,6.617,0,0,0-.29-4.119,4.363,4.363,0,0,0-2.914-2.226A8.234,8.234,0,0,0,227.844,83.079Z" transform="translate(-119.047 -21.509)"/><path class="a" d="M482.531,83.083h-1.411a.8.8,0,0,0-.731.768c-.575,2.725-1.176,5.459-1.743,8.171a6.4,6.4,0,0,0,.391,4.056,4.564,4.564,0,0,0,3.258,2.163,7.027,7.027,0,0,0,4.753-.634c.042.244.118.512.42.525.907.042,1.818,0,2.729,0a.794.794,0,0,0,.76-.693c.941-4.392,1.86-8.789,2.8-13.181.046-.307.189-.659,0-.941s-.571-.239-.865-.248h-2.435a.84.84,0,0,0-.726.81q-.84,3.922-1.68,7.852a3.221,3.221,0,0,1-3.464,2.519,2.058,2.058,0,0,1-1.5-.894,2.255,2.255,0,0,1-.26-1.755c.55-2.582,1.109-5.165,1.646-7.747a.588.588,0,0,0-.546-.781C483.468,83.087,483,83.083,482.531,83.083Z" transform="translate(-270.223 -21.504)"/><path class="a" d="M367.166,85.793a6.114,6.114,0,0,0-3.993-3.208,7.353,7.353,0,0,0-1.864-.2,9.406,9.406,0,0,0-3.964,1.02c-.042-.311-.1-.718-.487-.756-.89-.063-1.785,0-2.675,0a.84.84,0,0,0-.794.794l-4.018,18.9a4.845,4.845,0,0,0-.181,1.067.55.55,0,0,0,.554.483c.752.038,1.507,0,2.263,0a1.55,1.55,0,0,0,1.008-.189,1.159,1.159,0,0,0,.315-.659q.642-3.023,1.3-6.047a6.693,6.693,0,0,0,3.62.945,9.036,9.036,0,0,0,5.639-2.1,10.044,10.044,0,0,0,3.615-5.19,7.176,7.176,0,0,0-.336-4.858ZM358.5,93.859a2.813,2.813,0,0,1-2.255-1.558,3.716,3.716,0,0,1,0-2.755,4.493,4.493,0,0,1,4.4-3.124,3.2,3.2,0,0,1,1.6.42,2.713,2.713,0,0,1,1.31,2,4.685,4.685,0,0,1-5.077,5.018Z" transform="translate(-195.211 -21.107)"/><path class="a" d="M410.978,86.981a5.879,5.879,0,0,0-3.741-4.2,6.9,6.9,0,0,0-2.314-.382,9.236,9.236,0,0,0-1.407.1,9.364,9.364,0,0,0-4.72,2.2,9.617,9.617,0,0,0-3.452,5.635,7.138,7.138,0,0,0,.487,4.287,5.95,5.95,0,0,0,4.128,3.158,8.755,8.755,0,0,0,6.5-1.327A11.552,11.552,0,0,0,410,92.767a8.184,8.184,0,0,0,.978-5.786ZM406.25,91.6a4.732,4.732,0,0,1-3.443,2.184,3.1,3.1,0,0,1-2.658-.932,3.2,3.2,0,0,1-.533-3.082,4.972,4.972,0,0,1,3.137-3.124,4.421,4.421,0,0,1,1.26-.176,3.422,3.422,0,0,1,1.23.231,2.7,2.7,0,0,1,1.625,1.852,3.909,3.909,0,0,1-.617,3.061Z" transform="translate(-221.908 -21.115)"/><path class="a" d="M449.513,86.352a6.055,6.055,0,0,0-4.321-3.506,7.235,7.235,0,0,0-1.44-.155,9.343,9.343,0,0,0-4.2,1.029c0-.323-.1-.747-.5-.764-.84-.055-1.7,0-2.557,0a.789.789,0,0,0-.84.655c-1.4,6.513-2.776,13.017-4.17,19.542-.046.281-.151.638.084.865s.579.164.873.181c.8,0,1.6,0,2.4-.021a.785.785,0,0,0,.676-.68c.454-2.066.886-4.132,1.335-6.2a7.411,7.411,0,0,0,5.623.7,9.99,9.99,0,0,0,4.724-2.809,9.267,9.267,0,0,0,2.629-4.527A7.206,7.206,0,0,0,449.513,86.352Zm-8.818,7.806a2.805,2.805,0,0,1-2.247-1.68,3.867,3.867,0,0,1,.193-3,4.934,4.934,0,0,1,3.225-2.666,4.988,4.988,0,0,1,1-.1,3.191,3.191,0,0,1,1.6.42,2.7,2.7,0,0,1,1.327,2.011,4.66,4.66,0,0,1-5.093,5.014Z" transform="translate(-242.911 -21.284)"/><path class="a" d="M311.257,87.342a5.879,5.879,0,0,0-3.191-4.123,6.5,6.5,0,0,0-2.755-.63,10.034,10.034,0,0,0-1.7.126,10.387,10.387,0,0,0-6.794,4.716,8.4,8.4,0,0,0-1.193,6.1,5.879,5.879,0,0,0,3.691,4.249,7.978,7.978,0,0,0,3.96.3,10.274,10.274,0,0,0,6.509-4.338A8.4,8.4,0,0,0,311.257,87.342ZM306.974,90.9a4.756,4.756,0,0,1-4.4,3.162,2.881,2.881,0,0,1-2.62-1.617,3.746,3.746,0,0,1,.357-3.384,4.854,4.854,0,0,1,3.154-2.272,3.887,3.887,0,0,1,.8-.067,2.969,2.969,0,0,1,2.171.878A3.22,3.22,0,0,1,306.974,90.9Z" transform="translate(-164.051 -21.225)"/><path class="a" d="M196.221,82.92c-.768,0-1.545-.029-2.314,0-.42.059-.6.491-.689.84a6.844,6.844,0,0,0-3.872-1.121,5.435,5.435,0,0,0-.584.029,9.024,9.024,0,0,0-5.169,2.137,9.831,9.831,0,0,0-3.662,5.824,7.34,7.34,0,0,0,.34,3.888,5.967,5.967,0,0,0,4.14,3.54,8.646,8.646,0,0,0,5.946-.894c.038.311.055.747.449.81.81.1,1.633,0,2.452.042a.84.84,0,0,0,.873-.689c.924-4.346,1.827-8.7,2.746-13.042a3.981,3.981,0,0,0,.143-.966C196.977,82.983,196.532,82.9,196.221,82.92Zm-7.84,11.086a3.641,3.641,0,0,1-3.275-.323,2.7,2.7,0,0,1-1.125-2.032,4.784,4.784,0,0,1,3.494-4.787,4.292,4.292,0,0,1,.983-.13,3.5,3.5,0,0,1,1.6.336,2.746,2.746,0,0,1,1.5,2.284A4.779,4.779,0,0,1,188.381,94.006Z" transform="translate(-96.956 -21.253)"/><path class="a" d="M151.984,79.188a6.059,6.059,0,0,0-5.039-4.514,8.751,8.751,0,0,0-5.039.873q.63-2.979,1.26-5.963a.609.609,0,0,0-.445-.84,9.1,9.1,0,0,0-1.016-.034h-1.012a2.75,2.75,0,0,0-1.26.139.991.991,0,0,0-.391.71q-2.066,9.767-4.136,19.538a.659.659,0,0,0,.185.718,1.974,1.974,0,0,0,.978.134c.68,0,1.365,0,2.045-.021.391,0,.579-.391.689-.718a8.326,8.326,0,0,0,8.4-.378,11.3,11.3,0,0,0,4.2-4.619,7.978,7.978,0,0,0,.584-5.026Zm-9.112,6.924a2.839,2.839,0,0,1-2.192-1.57,3.83,3.83,0,0,1,.126-3.091,4.883,4.883,0,0,1,3.464-2.75,4.619,4.619,0,0,1,.642-.059,3.267,3.267,0,0,1,1.843.487,2.725,2.725,0,0,1,1.226,1.974,4.688,4.688,0,0,1-5.11,5.009Z" transform="translate(-70.884 -13.163)"/><path class="a" d="M546.574,83.171c-.84-.029-1.68-.025-2.519,0-.466,0-.684.479-.773.865a6.74,6.74,0,0,0-3.817-1.117h0a8.646,8.646,0,0,0-2.393.332,10.792,10.792,0,0,0-5.547,4.077,8.067,8.067,0,0,0-1.352,6.937,5.954,5.954,0,0,0,3.7,3.821,8.482,8.482,0,0,0,6.58-.714c.025.252,0,.588.256.739a2.742,2.742,0,0,0,1.142.118,14.972,14.972,0,0,0,1.789-.046.869.869,0,0,0,.584-.785q1.419-6.718,2.839-13.462a.563.563,0,0,0-.483-.764ZM538.76,94.059a3.893,3.893,0,0,1-3.237.029,2.679,2.679,0,0,1-1.478-2.137,4.75,4.75,0,0,1,3.649-4.917,5.315,5.315,0,0,1,.735-.08h.281a3.044,3.044,0,0,1,1.839.617,2.738,2.738,0,0,1,1.083,2.1A4.747,4.747,0,0,1,538.76,94.059Z" transform="translate(-300.039 -21.416)"/></g></svg>