<svg xmlns="http://www.w3.org/2000/svg" width="49.225" height="49.225" viewBox="0 0 49.225 49.225"><defs><style>.a{fill:#5aadaa;}</style></defs><path class="a" d="M45.123,0H4.1A4.107,4.107,0,0,0,0,4.1V45.123a4.107,4.107,0,0,0,4.1,4.1H45.123a4.107,4.107,0,0,0,4.1-4.1V4.1A4.107,4.107,0,0,0,45.123,0Zm2.461,45.123a2.461,2.461,0,0,1-2.461,2.461H4.1a2.461,2.461,0,0,1-2.461-2.461V8.2H47.584V45.123Zm0-38.559H1.641V4.1A2.461,2.461,0,0,1,4.1,1.641H45.123A2.461,2.461,0,0,1,47.584,4.1V6.563Z"/><path class="a" d="M44.308,34.133h-.82a.82.82,0,0,0,0,1.641h.82a.82.82,0,0,0,0-1.641Z" transform="translate(-38.565 -30.851)"/><path class="a" d="M86.465,34.179a.752.752,0,0,0-.623,0,.948.948,0,0,0-.271.172.832.832,0,0,0,0,1.165.948.948,0,0,0,.271.172.773.773,0,0,0,.623,0,.948.948,0,0,0,.271-.172.832.832,0,0,0,0-1.165A.948.948,0,0,0,86.465,34.179Z" transform="translate(-77.129 -30.832)"/><path class="a" d="M120.6,34.146a.82.82,0,0,0-.9.18.948.948,0,0,0-.172.271.773.773,0,0,0,0,.623.948.948,0,0,0,.172.271.832.832,0,0,0,1.165,0,.947.947,0,0,0,.172-.271.688.688,0,0,0,.066-.312A.82.82,0,0,0,120.6,34.146Z" transform="translate(-107.98 -30.807)"/><path class="a" d="M190.848,34.133H162.954a.82.82,0,0,0,0,1.641h27.894a.82.82,0,0,0,0-1.641Z" transform="translate(-146.546 -30.851)"/><path class="a" d="M89.757,147.064a.752.752,0,0,0,.121.091,16.334,16.334,0,0,0,23.8-.007.767.767,0,0,0,.115-.082.8.8,0,0,0,.071-.12,16.309,16.309,0,0,0,0-22.108l0,0a.8.8,0,0,0-.071-.12.734.734,0,0,0-.122-.092,16.334,16.334,0,0,0-23.792,0,.729.729,0,0,0-.122.092.8.8,0,0,0-.071.12,16.309,16.309,0,0,0,0,22.108A.79.79,0,0,0,89.757,147.064Zm16.492,2.894a15.076,15.076,0,0,0,2.794-5.169v0a15.02,15.02,0,0,1,2.9,1.784A14.766,14.766,0,0,1,106.249,149.957Zm6.824-4.58a16.639,16.639,0,0,0-3.566-2.186,29.247,29.247,0,0,0,.859-6.481H116.5A14.686,14.686,0,0,1,113.073,145.378Zm3.426-10.308h-6.133a29.258,29.258,0,0,0-.859-6.481,16.64,16.64,0,0,0,3.566-2.185A14.685,14.685,0,0,1,116.5,135.069Zm-4.558-9.862a15.016,15.016,0,0,1-2.9,1.784,15.077,15.077,0,0,0-2.793-5.171A14.77,14.77,0,0,1,111.941,125.207Zm-9.347-3.97c2.011.527,3.789,2.944,4.91,6.367a17.42,17.42,0,0,1-4.91.934Zm0,8.943a18.972,18.972,0,0,0,5.362-.984,27.776,27.776,0,0,1,.77,5.873h-6.133Zm0,6.53h6.133a27.773,27.773,0,0,1-.77,5.872,18.971,18.971,0,0,0-5.362-.983Zm0,6.53a17.421,17.421,0,0,1,4.91.935c-1.121,3.423-2.9,5.841-4.91,6.367Zm-10.988,3.327a15.021,15.021,0,0,1,2.9-1.779v0a15.076,15.076,0,0,0,2.794,5.169A14.769,14.769,0,0,1,91.606,146.567Zm9.347,3.975c-2.011-.527-3.789-2.944-4.91-6.367a17.419,17.419,0,0,1,4.91-.934Zm0-8.943a18.973,18.973,0,0,0-5.362.984,27.778,27.778,0,0,1-.77-5.873h6.133Zm0-6.53H94.82a27.776,27.776,0,0,1,.77-5.872,18.971,18.971,0,0,0,5.362.983Zm0-13.833v7.3a17.422,17.422,0,0,1-4.91-.935C97.163,124.181,98.942,121.763,100.953,121.236Zm-3.655.581a15.076,15.076,0,0,0-2.793,5.173v0a15.015,15.015,0,0,1-2.9-1.784A14.768,14.768,0,0,1,97.3,121.817ZM90.474,126.4a16.639,16.639,0,0,0,3.566,2.186,29.247,29.247,0,0,0-.859,6.481H87.048A14.686,14.686,0,0,1,90.474,126.4ZM93.18,136.71a29.258,29.258,0,0,0,.859,6.481,16.64,16.64,0,0,0-3.566,2.185,14.685,14.685,0,0,1-3.426-8.666H93.18Z" transform="translate(-77.161 -107.996)"/></svg>