<svg xmlns="http://www.w3.org/2000/svg" width="154" height="55.555" viewBox="0 0 154 55.555"><defs><style>.a,.b{fill:#d6d2d2;}.a{fill-rule:evenodd;}</style></defs><g transform="translate(-73.92 -95.64)"><path class="a" d="M79.469,158.007a17.253,17.253,0,0,1,13.274-5.546,17.567,17.567,0,0,1,11.447,3.931,18.819,18.819,0,0,1,6.6,10.033h-7.659a12.641,12.641,0,0,0-4.141-4.846,11.413,11.413,0,0,0-14.469,1.544,11.876,11.876,0,0,0,0,16.573,11.249,11.249,0,0,0,8.209,3.442,11.766,11.766,0,0,0,6.251-1.824,13.167,13.167,0,0,0,4.15-4.837h7.655a19.1,19.1,0,0,1-6.6,10.033,18.333,18.333,0,0,1-11.447,3.861A17.981,17.981,0,0,1,79.465,184.9a18.446,18.446,0,0,1-5.545-13.481A18.181,18.181,0,0,1,79.465,158Z" transform="translate(0 -39.543)"/><path class="a" d="M207.43,152.47h7.3v38.058h-7.3V152.47Z" transform="translate(-92.919 -39.552)"/><path class="a" d="M351.353,182.426a11.58,11.58,0,0,1,5.2-4.144l2.809-.772,1.894-.14.07,7.443-2.247-.14a7.093,7.093,0,0,0-4,1.265,6.873,6.873,0,0,0-2.53,2.809c-.632,1.052-.912,2.736-.912,5.126v13.985H344.4V178.647l6.953.07Z" transform="translate(-188.246 -56.882)"/><path class="a" d="M513.328,112.293,495.7,129.918l-4.633-4.633,17.625-17.625,4.633,4.633Z" transform="translate(-290.324 -8.366)"/><path class="a" d="M450.711,95.64v18.892H444.18V95.64Z" transform="translate(-257.69)"/><path class="a" d="M516.94,211.431V204.9h19.309v6.531Z" transform="translate(-308.329 -76.042)"/><path class="b" d="M428.118,181.682a14.8,14.8,0,0,0-10.823-4.506,14.387,14.387,0,0,0-10.665,4.506,14.846,14.846,0,0,0-4.494,10.884A15.461,15.461,0,0,0,417.3,207.941a15.337,15.337,0,0,0,15.238-15.375A15.055,15.055,0,0,0,428.118,181.682Zm-5.126,16.573a7.89,7.89,0,0,1-11.307,0,8.033,8.033,0,0,1-2.387-5.688,7.841,7.841,0,0,1,2.387-5.758,7.187,7.187,0,0,1,5.609-2.329,7.476,7.476,0,0,1,5.777,2.317,8.139,8.139,0,0,1-.07,11.447Z" transform="translate(-228.427 -56.746)"/><path class="a" d="M92.749,152.465a17.262,17.262,0,0,0-13.274,5.546,18.2,18.2,0,0,0-5.545,13.414,18.446,18.446,0,0,0,5.545,13.481,17.972,17.972,0,0,0,13.274,5.473,18.333,18.333,0,0,0,11.447-3.861,19.1,19.1,0,0,0,6.6-10.033h-7.659A13.168,13.168,0,0,1,99,181.327a11.766,11.766,0,0,1-6.251,1.824,11.249,11.249,0,0,1-8.209-3.442,11.876,11.876,0,0,1,0-16.573,11.413,11.413,0,0,1,14.469-1.544,12.642,12.642,0,0,1,4.132,4.846h7.655a18.819,18.819,0,0,0-6.6-10.033,17.567,17.567,0,0,0-11.447-3.931Z" transform="translate(-0.007 -39.547)"/><path class="b" d="M258.508,176.955c-4.916-.07-8.355,1.265-10.322,3.861a11.514,11.514,0,0,0-2.107,6.385h7.3a4.733,4.733,0,0,1,1.052-2.669,4.384,4.384,0,0,1,3.864-1.4,6.535,6.535,0,0,1,3.581.7,2.63,2.63,0,0,1,1.265,2.46,2.419,2.419,0,0,1-1.687,2.247l-5.618.912a17.749,17.749,0,0,0-6.318,1.9c-2.736,1.614-4.074,4.211-4,7.935a7.807,7.807,0,0,0,2.46,6.248,9.384,9.384,0,0,0,5.968,2.037c4-.07,7.163-1.052,9.41-3.019v3.019h7.3V186.076c0-3.508-1.265-5.968-3.648-7.233a17.053,17.053,0,0,0-8.513-1.894Zm3.089,16.5,1.4-.772v2.949c0,2.526-.7,4.284-2.034,5.266a7.707,7.707,0,0,1-4.56,1.475,3.977,3.977,0,0,1-2.6-.842,4.176,4.176,0,0,1,.7-6.181,9.686,9.686,0,0,1,3.439-.982l3.648-.912Z" transform="translate(-119.419 -56.58)"/><path class="a" d="M214.733,152.47h-7.3v38.058h7.3V152.47Z" transform="translate(-92.919 -39.552)"/><path class="a" d="M356.549,178.294a11.581,11.581,0,0,0-5.2,4.132v-3.709l-6.953-.07v29.211h7.233V193.873c0-2.39.28-4.074.912-5.126a6.874,6.874,0,0,1,2.53-2.809,7.093,7.093,0,0,1,4-1.265l2.247.14-.07-7.443-1.894.14-2.809.772Z" transform="translate(-188.246 -56.882)"/><path class="a" d="M495.7,129.918l17.625-17.625-4.633-4.633L491.07,125.285l4.633,4.633Z" transform="translate(-290.324 -8.366)"/><path class="a" d="M450.711,114.532V95.64H444.18v18.892Z" transform="translate(-257.69)"/><path class="a" d="M516.94,204.9v6.531h19.309V204.9Z" transform="translate(-308.329 -76.042)"/></g></svg>