<svg xmlns="http://www.w3.org/2000/svg" width="178.482" height="78.737" viewBox="0 0 178.482 78.737"><defs><style>.a{fill:#63c6c1;}.b{fill:#74daae;}</style></defs><g transform="translate(0 0.6)"><circle class="a" cx="3.035" cy="3.035" r="3.035" transform="translate(0 20.755)"/><circle class="a" cx="3.035" cy="3.035" r="3.035" transform="translate(0 51.216)"/><circle class="a" cx="3.035" cy="3.035" r="3.035" transform="translate(21.538 72.08) rotate(-3.84)"/><circle class="a" cx="3.035" cy="3.035" r="3.035" transform="translate(73.222 50.343) rotate(-3.84)"/><circle class="a" cx="3.035" cy="3.035" r="3.035" transform="translate(52.331 -0.6)"/><circle class="a" cx="3.035" cy="3.035" r="3.035" transform="translate(73.222 20.423) rotate(-3.84)"/><path class="a" d="M221.1,58.746a1.116,1.116,0,0,1-1.111-1.111V27.662L198.825,6.5a1.145,1.145,0,0,1,0-1.6,1.12,1.12,0,0,1,1.6,0h0l21.491,21.491a1.085,1.085,0,0,1,.325.786V57.581a1.134,1.134,0,0,1-1.138,1.165Z" transform="translate(-144.706 -3.763)"/><path class="a" d="M29.529,138.073a1.042,1.042,0,0,1-.786-.325L7.225,116.258a1.085,1.085,0,0,1-.325-.786V85.038A1.14,1.14,0,0,1,8.011,83.9a1.163,1.163,0,0,1,1.138,1.138v29.946l21.165,21.165a1.145,1.145,0,0,1,0,1.6A1.042,1.042,0,0,1,29.529,138.073Z" transform="translate(-5.03 -61.6)"/><path class="a" d="M29.991,79.742,7.2,25.568,44.653,40.825,59.883,3.4,82.674,57.573,45.222,42.316ZM9.287,27.628l20.7,49.16L44.219,41.855Zm36.4,13.631L80.615,55.487,59.91,6.327Z" transform="translate(-5.249 -2.916)"/><g transform="translate(91.436 30.376)"><path class="b" d="M338.5,115.8h6.45c5.2,0,7.425,4.065,7.425,9.079s-2.385,8.916-7.615,8.916H338.5Zm.759,17.29h5.474c4.363,0,6.829-3.117,6.829-8.211s-2.3-8.374-6.64-8.374h-5.664Z" transform="translate(-338.202 -115.231)"/><path class="b" d="M343.958,133.291H337.4V114.7h6.748c4.851,0,7.724,3.523,7.724,9.377C351.872,129.849,348.918,133.291,343.958,133.291Zm-5.962-.6h5.962c4.58,0,7.29-3.225,7.29-8.618,0-7.913-4.986-8.78-7.127-8.78h-6.152Zm5.935-.108h-5.8V115.4h5.962c4.363,0,6.938,3.252,6.938,8.672.027,5.339-2.629,8.509-7.1,8.509Zm-5.176-.6h5.176c4.146,0,6.5-2.873,6.5-7.913,0-5.122-2.3-8.076-6.341-8.076h-5.366Z" transform="translate(-337.4 -114.429)"/><path class="b" d="M410.552,143.041h.759a5.048,5.048,0,0,1-5.257,4.146c-3.6,0-5.854-2.683-5.854-6.694,0-4.2,2.358-6.694,5.827-6.694,3.74,0,5.474,2.791,5.474,6.558H400.959v.163c0,3.306,1.707,6.016,5.122,6.016A4.348,4.348,0,0,0,410.552,143.041Zm-9.621-3.306h9.783c0-2.6-1.463-5.257-4.715-5.257-3.171-.027-4.986,2.493-5.068,5.257Z" transform="translate(-383.181 -128.353)"/><path class="b" d="M405.179,146.784c-3.74,0-6.179-2.737-6.179-6.992s2.412-6.992,6.152-6.992c3.6,0,5.772,2.575,5.772,6.883v.3H400.382c.054,2.6,1.328,5.556,4.8,5.556a4.067,4.067,0,0,0,4.2-3.252l.054-.244h1.382l-.081.379A5.355,5.355,0,0,1,405.179,146.784Zm-.027-13.415c-3.415,0-5.528,2.439-5.528,6.4,0,3.875,2.2,6.4,5.556,6.4a4.7,4.7,0,0,0,4.878-3.55h-.135a4.625,4.625,0,0,1-4.743,3.5c-3.279,0-5.42-2.466-5.42-6.314v-.461h10.569c-.108-3.794-1.978-5.962-5.176-5.962Zm5.014,5.935H399.759v-.3c.081-2.683,1.789-5.556,5.393-5.556,3.442,0,5.014,2.873,5.014,5.556Zm-9.783-.623h9.16c-.108-2.358-1.491-4.661-4.39-4.661a4.769,4.769,0,0,0-4.77,4.661Z" transform="translate(-382.306 -127.624)"/><path class="b" d="M448.586,134.5l4.526,11.924h.027l4.553-11.924h.786l-4.932,12.927h-.84L447.8,134.5Z" transform="translate(-417.881 -128.863)"/><path class="b" d="M452.6,146.85h-1.247L446.2,133.3h1.436l4.336,11.409,4.363-11.409h1.409Zm-.84-.6h.406l4.715-12.331h-.135l-4.553,11.924h-.406l-.108-.19-4.444-11.734h-.136Z" transform="translate(-416.715 -127.988)"/><path class="b" d="M495.8,124.068c0-5.42,3.333-9.268,8.293-9.268s8.293,3.848,8.293,9.268-3.333,9.3-8.293,9.3C499.106,133.337,495.8,129.461,495.8,124.068Zm15.745,0c0-5.149-3.225-8.564-7.48-8.564s-7.48,3.415-7.48,8.564,3.225,8.591,7.48,8.591,7.48-3.469,7.48-8.591Z" transform="translate(-452.873 -114.502)"/><path class="b" d="M503.191,132.86c-5.068,0-8.591-3.957-8.591-9.593s3.523-9.566,8.591-9.566,8.591,3.93,8.591,9.566S508.259,132.86,503.191,132.86Zm0-18.564c-4.688,0-7.967,3.686-7.967,8.97s3.279,9,7.967,9,7.995-3.686,7.995-8.97-3.306-9-7.995-9Zm0,17.859c-4.5,0-7.778-3.74-7.778-8.889s3.279-8.862,7.778-8.862,7.778,3.713,7.778,8.862-3.279,8.889-7.778,8.889Zm0-17.154c-4.228,0-7.182,3.388-7.182,8.266s2.954,8.293,7.182,8.293,7.182-3.415,7.182-8.266S507.418,115,503.191,115Z" transform="translate(-451.998 -113.7)"/><path class="b" d="M581.092,140.494c0,4.228-2.466,6.694-5.528,6.694a5.123,5.123,0,0,1-4.851-3.5h-.054v7.4H569.9V133.963h.759v3.415h.054a5.082,5.082,0,0,1,4.851-3.577C578.626,133.8,581.092,136.266,581.092,140.494Zm-.759,0c0-3.767-2.06-6.043-4.959-6.043-2.493,0-4.743,2.276-4.743,6.043s2.249,6.043,4.743,6.043c2.9,0,4.959-2.249,4.959-6.043Z" transform="translate(-506.892 -128.353)"/><path class="b" d="M570.155,150.612H568.8V132.888h1.355v2.466a5.216,5.216,0,0,1,4.607-2.656c3.442,0,5.827,2.873,5.827,6.992s-2.412,6.992-5.827,6.992a5.31,5.31,0,0,1-4.607-2.6Zm-.759-.623h.135v-7.4h.488a8.8,8.8,0,0,1-.027-5.718h-.406l-.054-.3v-3.089H569.4Zm2.249-5.068a4.6,4.6,0,0,0,3.117,1.165c3.117,0,5.23-2.575,5.23-6.4s-2.114-6.4-5.23-6.4a4.457,4.457,0,0,0-3.089,1.138,4.425,4.425,0,0,1,2.9-1.084c3.144,0,5.257,2.547,5.257,6.341s-2.114,6.341-5.257,6.341a4.333,4.333,0,0,1-2.927-1.111Zm2.927-10.949c-2.2,0-4.417,1.978-4.417,5.745s2.222,5.745,4.417,5.745c2.818,0,4.661-2.249,4.661-5.745s-1.816-5.745-4.661-5.745Z" transform="translate(-506.09 -127.55)"/><path class="b" d="M630.381,143.556c0,2.168-1.816,3.659-4.58,3.659-3.686,0-5.393-1.87-5.5-4.309h.759c.135,2.114,1.734,3.659,4.77,3.659,2.087,0,3.821-1.247,3.821-2.873,0-2.439-2.087-2.683-4.417-3.333-2.629-.7-4.444-1.165-4.444-3.333,0-1.924,1.68-3.225,4.444-3.225,3.171,0,4.445,1.843,4.743,3.631h-.813a3.662,3.662,0,0,0-3.984-2.981c-1.816,0-3.713.759-3.713,2.575,0,1.734,1.951,2.141,4.336,2.737C628.593,140.467,630.381,141.09,630.381,143.556Z" transform="translate(-543.633 -128.353)"/><path class="b" d="M624.854,146.784c-3.5,0-5.664-1.707-5.827-4.58l-.027-.325h1.355l.027.3c.135,2.114,1.789,3.36,4.444,3.36,1.978,0,3.523-1.138,3.523-2.575,0-1.951-1.463-2.331-3.5-2.846l-.732-.19-.135-.027c-2.52-.678-4.526-1.219-4.526-3.577,0-2.141,1.87-3.523,4.77-3.523,2.764,0,4.661,1.463,5.041,3.875l.054.352H627.97l-.054-.244c-.163-.813-.813-2.737-3.686-2.737-1.572,0-3.388.6-3.388,2.276,0,1.355,1.355,1.762,3.74,2.358l.352.081c2.9.732,4.8,1.409,4.8,4.065C629.732,145.185,627.753,146.784,624.854,146.784Zm-5.2-4.309c.271,2.358,2.141,3.686,5.176,3.686,2.547,0,4.282-1.355,4.282-3.36,0-2.141-1.382-2.737-4.336-3.5l-.352-.081c-2.249-.569-4.2-1.057-4.2-2.954,0-1.978,2.005-2.873,4.011-2.873a3.957,3.957,0,0,1,4.228,2.981h.135c-.271-1.111-1.192-3.008-4.363-3.008-2.575,0-4.146,1.111-4.146,2.927s1.328,2.249,4.092,2.981l.135.027.7.19c2.033.515,3.93,1,3.93,3.442,0,1.789-1.816,3.171-4.119,3.171-2.846,0-4.77-1.382-5.041-3.659Z" transform="translate(-542.686 -127.624)"/></g></g></svg>