<svg xmlns="http://www.w3.org/2000/svg" width="236.392" height="116.916" viewBox="0 0 236.392 116.916"><defs><style>.a,.b{fill:#fff;}.a{fill-rule:evenodd;}</style></defs><g transform="translate(-198.47 -57.536)"><path class="a" d="M429.835,93.391a3.77,3.77,0,0,0-3.366-1.6,5.34,5.34,0,0,0-3.955,1.691,6.323,6.323,0,0,0-1.653,3.612h10.025A7.664,7.664,0,0,0,429.835,93.391Z" transform="translate(-56.755 -8.742)"/><path class="a" d="M376.845,93.391a3.752,3.752,0,0,0-3.366-1.6,5.34,5.34,0,0,0-3.955,1.691,6.323,6.323,0,0,0-1.653,3.612h10.025A7.664,7.664,0,0,0,376.845,93.391Z" transform="translate(-43.232 -8.742)"/><path class="a" d="M464.81,70.439c-2.823-26.813-33.516-3.724-83.968-2.443-54.072,1.378-66.577,51.167-62.324,65.482,9.794,32.912,50.177-19.759,103.042,21.391C458.941,183.968,467.641,97.281,464.81,70.439Zm-32.026,2.234a2.651,2.651,0,0,1,3.724,0,2.629,2.629,0,1,1-3.7,0ZM369.916,96.581a14.151,14.151,0,0,1-4.007,3.925,10.2,10.2,0,0,1-5.5,1.624,9.213,9.213,0,0,1-5.042-1.363,8.372,8.372,0,0,1-3.046-3.62,12.557,12.557,0,0,1-1.02-5.124,11.128,11.128,0,0,1,1.341-5.288,10.219,10.219,0,0,1,3.56-3.843,9.682,9.682,0,0,1,5.176-1.49,7.972,7.972,0,0,1,6.018,2.3,8.856,8.856,0,0,1,2.234,6.04v.3H355.05a12.454,12.454,0,0,0,.745,4.424,6.966,6.966,0,0,0,10.33,3.672,10.74,10.74,0,0,0,2.741-2.316l.171-.2,1.043.745Zm19.365-12.848a4.721,4.721,0,0,0-1.147,1.877l-5.675,16.11h-3.724l-5.489-14.769a7.947,7.947,0,0,0-1.363-2.629,3.329,3.329,0,0,0-2.234-1.2h-.261V81.715h9.392v1.408H378.5a3.24,3.24,0,0,0-1.624.387.946.946,0,0,0-.372.834,2.652,2.652,0,0,0,.171.827c.112.335,3.843,10.576,4.893,13.451,1.013-2.838,4.6-12.8,4.715-13.2a3.858,3.858,0,0,0,.186-1.169.864.864,0,0,0-.462-.745,3.426,3.426,0,0,0-1.661-.365h-.268v-1.43H390.9v1.393h-.246a3.091,3.091,0,0,0-1.378.6ZM409.39,96.581a14.248,14.248,0,0,1-4.007,3.925,10.152,10.152,0,0,1-5.5,1.624,9.205,9.205,0,0,1-5.05-1.363,8.372,8.372,0,0,1-3.046-3.62,12.557,12.557,0,0,1-1.013-5.124,11.112,11.112,0,0,1,1.326-5.288,10.293,10.293,0,0,1,3.568-3.843,9.682,9.682,0,0,1,5.176-1.49,8.1,8.1,0,0,1,6.025,2.3,8.848,8.848,0,0,1,2.234,6.04v.3H394.524a12.662,12.662,0,0,0,.745,4.424,6.973,6.973,0,0,0,10.338,3.672,10.777,10.777,0,0,0,2.748-2.316l.156-.2,1.058.745Zm17.875-10.427h-2.823l-.045-.238a4.372,4.372,0,0,0-.536-1.415,1.348,1.348,0,0,0-1.229-.685,5.281,5.281,0,0,0-2.912,1.11A23.587,23.587,0,0,0,417.3,87l-.037,11.351a2.577,2.577,0,0,0,.216,1.266,1.393,1.393,0,0,0,1.005.588,12.743,12.743,0,0,0,2.48.164h.283v1.408h-11.47v-1.445h.3a5.31,5.31,0,0,0,2.674-.395c.35-.261.529-.745.477-1.631V85.737a1.78,1.78,0,0,0-.477-1.624,5.472,5.472,0,0,0-2.674-.4h-.3V82.318h.276c1.154-.1,2.234-.209,3.352-.335a23.542,23.542,0,0,0,3.031-.544l.328-.082.357,3.947a18.663,18.663,0,0,1,3.21-2.614,8.193,8.193,0,0,1,4.26-1.3,5.958,5.958,0,0,1,1.266.216,8.706,8.706,0,0,1,1.2.395l.171.074Zm12.729,15.641h-11.03v-1.46h.283c1.557-.052,2.488-.29,2.875-.678s.6-1.281.544-2.726V86.281c.045-1.177-.171-1.877-.566-2.19a4.88,4.88,0,0,0-2.756-.462h-.29v-1.4h.268q3.575-.261,7.105-.8l.335-.052s-.089,13.555-.089,15.6a4.26,4.26,0,0,0,.5,2.733c.358.41,1.147.618,2.5.67h.283Zm16.2-2.406a6.182,6.182,0,0,1-2.748,2.078,9.682,9.682,0,0,1-3.687.67,18.315,18.315,0,0,1-4.245-.536,13.615,13.615,0,0,1-3.53-1.333l-.149-4.253h2.234l.037.246a4.834,4.834,0,0,0,1.75,3.285,6.428,6.428,0,0,0,3.821.946,6.614,6.614,0,0,0,1.936-.313,3.888,3.888,0,0,0,1.639-.968,2.376,2.376,0,0,0,.678-1.713,2.622,2.622,0,0,0-1.154-2.1,12.662,12.662,0,0,0-2.867-1.49c-1.162-.454-2.316-.953-3.478-1.49a9.683,9.683,0,0,1-2.979-2.093,4.946,4.946,0,0,1-1.259-3.366,4.543,4.543,0,0,1,1.2-3.128,6.763,6.763,0,0,1,2.815-1.795,10.144,10.144,0,0,1,3.322-.566,13.2,13.2,0,0,1,3.262.454,31.615,31.615,0,0,1,3.054.953l.186.067v3.687h-1.974l-.045-.231a4.3,4.3,0,0,0-1.564-2.607,5.161,5.161,0,0,0-5.705-.276,2.629,2.629,0,0,0-1.214,2.234,2.368,2.368,0,0,0,1.162,1.817,15.18,15.18,0,0,0,2.867,1.534c1.162.492,2.324,1.013,3.486,1.586a10.859,10.859,0,0,1,2.942,2.063,4.364,4.364,0,0,1,1.266,3.031,6.085,6.085,0,0,1-1.095,3.568Z" transform="translate(-30.442)"/><path class="b" d="M198.738,201.387a3.858,3.858,0,0,1,2.733-1.058c2.026,0,2.875.968,2.875,2.9v2.979a7.445,7.445,0,0,0,.1,1.184h-1.11a4.812,4.812,0,0,1-.074-1.028h0a2.584,2.584,0,0,1-2.234,1.207c-1.393,0-2.555-.745-2.555-2.041,0-2.272,2.637-2.4,4.327-2.4h.439v-.209c0-1-.633-1.49-1.7-1.49a3.076,3.076,0,0,0-2.041.745Zm3.322,2.689c-1.49,0-2.4.387-2.4,1.318s.648,1.184,1.49,1.184a1.959,1.959,0,0,0,2.026-2.071v-.432Z" transform="translate(0 -36.441)"/><path class="b" d="M209.15,202.132c0-.626-.052-1.169-.052-1.624h1.08v1.132h0a2.488,2.488,0,0,1,2.287-1.311c1.8,0,2.614,1.147,2.614,2.8v4.238h-1.147v-4.119c0-1.14-.5-1.862-1.564-1.862-1.49,0-2.13,1.073-2.13,2.644v3.337H209.09Z" transform="translate(-2.71 -36.441)"/><path class="b" d="M225.2,195.84h3.113l4.417,7.225h0V195.84h2.294v10.382h-2.979l-4.536-7.388h0v7.388H225.2Z" transform="translate(-6.822 -35.296)"/><path class="b" d="M242.789,197.866H239.81V195.84H248v2.026h-2.979v8.357h-2.287Z" transform="translate(-10.55 -35.296)"/><path class="b" d="M253.979,197.866H251V195.84h8.193v2.026h-2.979v8.357h-2.234Z" transform="translate(-13.406 -35.296)"/><path class="b" d="M269.13,195.84h3.434c3.344,0,6.145,1.43,6.145,5.214,0,3.359-2.741,5.161-5.832,5.161h-3.724Zm2.294,8.312h1.184c2.13,0,3.724-.812,3.724-3.165,0-2.041-1.631-2.979-3.568-2.979h-1.348Z" transform="translate(-18.033 -35.296)"/><path class="b" d="M287,195.84h1.892l4.521,10.382h-2.584l-.894-2.2H285.9l-.871,2.2h-2.51Zm.886,3.024-1.266,3.225h2.54Z" transform="translate(-21.45 -35.296)"/><path class="b" d="M298.269,197.866H295.29V195.84h8.193v2.026H300.5v8.357h-2.287Z" transform="translate(-24.709 -35.296)"/><path class="b" d="M308.884,195.84h1.922l4.469,10.382H312.69l-.894-2.2h-3.97l-.864,2.2H304.4Zm.879,3.024-1.259,3.225h2.54Z" transform="translate(-27.034 -35.296)"/><path class="b" d="M342.314,200.329a3.612,3.612,0,1,1-3.664,3.612,3.5,3.5,0,0,1,3.664-3.612Zm0,6.159a2.555,2.555,0,1,0-2.428-2.547,2.391,2.391,0,0,0,2.428,2.547Z" transform="translate(-35.774 -36.44)"/><path class="b" d="M350.72,202.129c0-.626-.06-1.169-.06-1.624h1.087v1.132h0a2.5,2.5,0,0,1,2.294-1.311,2.108,2.108,0,0,1,2.167,1.311,2.383,2.383,0,0,1,2.167-1.311c1.966,0,2.614,1.095,2.614,2.875v4.163h-1.147v-4.1c0-.953-.335-1.877-1.668-1.877a1.847,1.847,0,0,0-1.773,2.026v3.955h-1.095v-3.888c0-1.49-.387-2.093-1.318-2.093-1.49,0-2.13,1.073-2.13,2.644v3.337h-1.14Z" transform="translate(-38.84 -36.438)"/><path class="b" d="M366.93,200.509h1.14v1h0a3.188,3.188,0,0,1,2.465-1.177,3.612,3.612,0,0,1,.179,7.217,2.979,2.979,0,0,1-2.644-1.393h0v4.558h-1.14Zm3.575,5.958a2.555,2.555,0,1,0-2.435-2.547,2.391,2.391,0,0,0,2.435,2.57Z" transform="translate(-42.992 -36.442)"/><path class="b" d="M378.578,201.387a3.813,3.813,0,0,1,2.726-1.058c2.018,0,2.867.968,2.867,2.9v2.979a7.451,7.451,0,0,0,.1,1.184h-1.1a4.812,4.812,0,0,1-.074-1.028h0a2.592,2.592,0,0,1-2.234,1.207c-1.4,0-2.555-.745-2.555-2.041,0-2.272,2.637-2.4,4.32-2.4h.447v-.209c0-1-.633-1.49-1.706-1.49a3.083,3.083,0,0,0-2.033.745Zm3.314,2.689c-1.452,0-2.4.387-2.4,1.318s.648,1.184,1.49,1.184a1.959,1.959,0,0,0,2.026-2.07v-.432Z" transform="translate(-45.896 -36.441)"/><path class="b" d="M388.727,202.132c0-.626-.067-1.169-.067-1.624h1.087c0,.365.037.745.037,1.132h0a2.488,2.488,0,0,1,2.286-1.311c1.8,0,2.614,1.147,2.614,2.8v4.238h-1.147v-4.119c0-1.14-.5-1.862-1.564-1.862-1.49,0-2.13,1.073-2.13,2.644v3.337H388.7Z" transform="translate(-48.538 -36.441)"/><path class="b" d="M401.813,209c-.454,1.162-.916,1.951-2.294,1.951a2.48,2.48,0,0,1-1.028-.179l.149-1a2.234,2.234,0,0,0,.8.119c.745,0,1.035-.454,1.281-1.125l.469-1.288-2.845-6.912h1.333l2.13,5.377h0l2.041-5.377h1.251Z" transform="translate(-51.011 -36.503)"/><path class="b" d="M332.927,197.839a3.165,3.165,0,0,0-2.577-1.259,4.1,4.1,0,0,0-3.932,4.29,4.012,4.012,0,0,0,3.932,4.283,3.627,3.627,0,0,0,2.979-1.445l.916.745a4.566,4.566,0,0,1-3.9,1.81,5.422,5.422,0,1,1,0-10.844,4.469,4.469,0,0,1,3.642,1.616Z" transform="translate(-32.271 -35.187)"/></g></svg>