<svg xmlns="http://www.w3.org/2000/svg" width="62" height="64.096" viewBox="0 0 62 64.096"><defs><style>.a{fill:#56acab;}</style></defs><g transform="translate(-31.512 -28.25)"><g transform="translate(38.287 36.073)"><path class="a" d="M126.3,76.941a.8.8,0,0,0-.8.8v31.2a.8.8,0,1,0,1.606,0v-31.2A.8.8,0,0,0,126.3,76.941Z" transform="translate(-102.078 -69.121)"/><path class="a" d="M70.051,52.6H53.4a.8.8,0,0,0-.8.8V69a.8.8,0,0,0,1.606,0v-14.8H70.052a.8.8,0,0,0,0-1.606Z" transform="translate(-52.6 -52.6)"/><path class="a" d="M164.032,52.6H147.383a.8.8,0,1,0,0,1.606h15.846V69a.8.8,0,0,0,1.606,0V53.4A.8.8,0,0,0,164.032,52.6Z" transform="translate(-116.386 -52.6)"/><path class="a" d="M199.2,149.846a.8.8,0,0,0-.8.8v1.928a.8.8,0,1,0,1.606,0v-1.928A.8.8,0,0,0,199.2,149.846Z" transform="translate(-151.557 -118.602)"/><path class="a" d="M199.2,168.032a.8.8,0,0,0-.8.8v3.915a.8.8,0,0,0,1.606,0v-3.915A.8.8,0,0,0,199.2,168.032Z" transform="translate(-151.557 -130.946)"/><path class="a" d="M195.131,192.4a.8.8,0,0,0-.8.8v1.124H193.2a.8.8,0,0,0,0,1.606h1.928a.8.8,0,0,0,.8-.8V193.2A.8.8,0,0,0,195.131,192.4Z" transform="translate(-147.485 -147.485)"/><path class="a" d="M170.925,198.4H166.66a.8.8,0,1,0,0,1.606h4.265a.8.8,0,1,0,0-1.606Z" transform="translate(-129.469 -151.557)"/><path class="a" d="M149.315,198.4h-1.928a.8.8,0,1,0,0,1.606h1.928a.8.8,0,1,0,0-1.606Z" transform="translate(-116.389 -151.557)"/><path class="a" d="M53.4,153.38a.8.8,0,0,0,.8-.8v-1.928a.8.8,0,0,0-1.606,0v1.928a.8.8,0,0,0,.8.8Z" transform="translate(-52.6 -118.602)"/><path class="a" d="M53.4,173.554a.8.8,0,0,0,.8-.8v-3.915a.8.8,0,0,0-1.606,0v3.915A.8.8,0,0,0,53.4,173.554Z" transform="translate(-52.6 -130.946)"/><path class="a" d="M55.331,194.328H54.206V193.2a.8.8,0,0,0-1.606,0v1.928a.8.8,0,0,0,.8.8h1.928a.8.8,0,0,0,0-1.606Z" transform="translate(-52.6 -147.485)"/><path class="a" d="M76.937,198.4H72.672a.8.8,0,1,0,0,1.606h4.265a.8.8,0,1,0,0-1.606Z" transform="translate(-65.678 -151.557)"/><path class="a" d="M101.147,198.4H99.219a.8.8,0,1,0,0,1.606h1.928a.8.8,0,1,0,0-1.606Z" transform="translate(-83.696 -151.557)"/></g><path class="a" d="M119.169,32.269l-6.774-3.911a.8.8,0,0,0-.8,0l-6.774,3.911a.8.8,0,0,0-.4.7v7.822a.8.8,0,0,0,.4.7l6.774,3.911a.8.8,0,0,0,.8,0l6.774-3.911a.8.8,0,0,0,.4-.7V32.964a.8.8,0,0,0-.4-.7Zm-7.176-2.288,5.168,2.983-5.168,2.983-5.168-2.983Zm0,13.789-5.971-3.447V34.355l5.569,3.215a.8.8,0,0,0,.8,0l5.569-3.215v5.967Z" transform="translate(-49.481 0)"/><path class="a" d="M119.169,178.078l-6.774-3.911a.8.8,0,0,0-.8,0l-6.774,3.911a.8.8,0,0,0-.4.7v7.822a.8.8,0,0,0,.4.7l6.774,3.911a.8.8,0,0,0,.8,0l6.774-3.911a.8.8,0,0,0,.4-.7v-7.822a.8.8,0,0,0-.4-.7Zm-7.176-2.288,5.168,2.983-5.168,2.983-5.168-2.983Zm0,13.789-5.971-3.447v-5.967l5.569,3.215a.8.8,0,0,0,.8,0l5.569-3.215v5.967Z" transform="translate(-49.481 -98.963)"/><path class="a" d="M192.073,105.173l-6.774-3.911a.8.8,0,0,0-.8,0l-6.774,3.911a.8.8,0,0,0-.4.7v7.822a.8.8,0,0,0,.4.7L184.5,118.3a.8.8,0,0,0,.8,0l6.774-3.911a.8.8,0,0,0,.4-.7v-7.822a.8.8,0,0,0-.4-.7Zm-7.177-2.288,5.168,2.983-5.168,2.983-5.168-2.983Zm0,13.789-5.969-3.447v-5.967l5.569,3.215a.8.8,0,0,0,.8,0l5.569-3.215v5.967Z" transform="translate(-98.962 -49.481)"/><path class="a" d="M46.265,105.173l-6.774-3.911a.8.8,0,0,0-.8,0l-6.774,3.911a.8.8,0,0,0-.4.7v7.822a.8.8,0,0,0,.4.7l6.774,3.911a.8.8,0,0,0,.8,0l6.774-3.911a.8.8,0,0,0,.4-.7v-7.822a.8.8,0,0,0-.4-.7Zm-7.174-2.288,5.167,2.983-5.167,2.983-5.168-2.983Zm0,13.789-5.972-3.447v-5.967l5.569,3.215a.8.8,0,0,0,.8,0l5.569-3.215v5.967Z" transform="translate(0 -49.481)"/></g></svg>