<svg xmlns="http://www.w3.org/2000/svg" width="207.766" height="75" viewBox="0 0 207.766 75"><defs><style>.a{fill:#74daae;}.b{fill:#63c6c1;}</style></defs><g transform="translate(0 -2.6)"><g transform="translate(94.56 16.5)"><path class="a" d="M335.8,52.9h1.243l7.43,17.629h.056L351.96,52.9H353.2V71.659h-.848V54.143H352.3l-7.374,17.516h-.876L336.7,54.143h-.057V71.659H335.8Z" transform="translate(-335.489 -52.589)"/><path class="a" d="M352.8,71.181h-1.469V54.766l-6.893,16.414h-1.3l-6.865-16.386V71.181H334.8V51.8h1.752l7.233,17.206L351.045,51.8H352.8Zm-.848-.622h.2V52.422h-.706l-7.459,17.629h-.424l-.141-.2-7.346-17.432h-.706V70.559h.2V53.043h.537l.141.2L343.5,70.588h.48l7.374-17.516h.537l.056.311Z" transform="translate(-334.772 -51.8)"/><path class="a" d="M413.1,56.317a.615.615,0,0,1,.65-.622h0a.61.61,0,0,1,.65.593v.028a.615.615,0,0,1-.65.622h0A.632.632,0,0,1,413.1,56.317Zm1.045,3.871v13.5h-.791v-13.5Z" transform="translate(-390.95 -54.593)"/><path class="a" d="M413.667,73.186h-1.413V59.06h1.413Zm-.791-.622h.141V59.71h-.141Zm.085-16.075a.947.947,0,1,1,0-1.893h.028a.923.923,0,0,1,.961.9v.028a1,1,0,0,1-.989.961Zm0-1.271a.339.339,0,0,0-.339.311.361.361,0,0,0,.339.311.339.339,0,0,0,.339-.311.312.312,0,0,0-.339-.311Z" transform="translate(-390.161 -53.806)"/><path class="a" d="M436.044,71.578c-3.531,0-5.453,2.995-5.453,6.3s1.921,6.3,5.453,6.3a4.463,4.463,0,0,0,4.662-4.012h.791a5.2,5.2,0,0,1-5.453,4.69c-3.7,0-6.244-2.8-6.244-6.978s2.543-6.978,6.244-6.978a5.248,5.248,0,0,1,5.453,4.605h-.791A4.5,4.5,0,0,0,436.044,71.578Z" transform="translate(-402.932 -65.504)"/><path class="a" d="M435.254,84.478c-3.927,0-6.554-2.938-6.554-7.289s2.627-7.289,6.554-7.289a5.555,5.555,0,0,1,5.763,4.859l.028.339h-1.441l-.028-.283a4.221,4.221,0,0,0-4.351-3.616c-3.532,0-5.142,3.108-5.142,5.989s1.61,5.989,5.142,5.989a4.175,4.175,0,0,0,4.351-3.729l.028-.283h1.413l-.028.339A5.506,5.506,0,0,1,435.254,84.478Zm0-13.957c-3.531,0-5.933,2.684-5.933,6.667s2.373,6.668,5.933,6.668a4.994,4.994,0,0,0,5.114-4.068h-.141a4.838,4.838,0,0,1-4.944,4.012c-3.955,0-5.763-3.419-5.763-6.611s1.808-6.611,5.763-6.611a4.876,4.876,0,0,1,4.944,3.9h.141a4.953,4.953,0,0,0-5.114-3.955Z" transform="translate(-402.143 -64.786)"/><path class="a" d="M488.476,70.985v.678h-.057a4.421,4.421,0,0,0-5.029,4.549v8.363H482.6V71.1h.791v2.882h.056a4.388,4.388,0,0,1,4.068-3.079A5.518,5.518,0,0,1,488.476,70.985Z" transform="translate(-440.815 -65.504)"/><path class="a" d="M482.913,84.1H481.5V69.97h1.413v1.949a4.636,4.636,0,0,1,3.814-2.119,6.52,6.52,0,0,1,1.045.085l.254.057v1.271h-.452a4.059,4.059,0,0,0-3.221.932,4.216,4.216,0,0,0-1.469,3.305Zm-.791-.622h.141V75.422A5.618,5.618,0,0,1,482.6,73.5h-.311l-.057-.311V70.619h-.141V83.474Zm4.605-13.024a3.849,3.849,0,0,0-2.8,1.243l.056-.028a4.633,4.633,0,0,1,3.39-1.13v-.057A2.508,2.508,0,0,0,486.727,70.45Z" transform="translate(-440.026 -64.715)"/><path class="a" d="M509.2,77.878c0-4.181,2.345-6.978,6.159-6.978s6.159,2.8,6.159,6.978-2.345,6.978-6.159,6.978S509.2,82.06,509.2,77.878Zm11.555,0c0-3.645-1.949-6.3-5.368-6.3s-5.368,2.656-5.368,6.3,1.949,6.3,5.368,6.3S520.755,81.551,520.755,77.878Z" transform="translate(-459.9 -65.504)"/><path class="a" d="M514.6,84.478c-3.927,0-6.5-2.853-6.5-7.289s2.543-7.289,6.5-7.289,6.47,2.853,6.47,7.261S518.525,84.478,514.6,84.478Zm0-13.957c-3.616,0-5.848,2.543-5.848,6.667s2.232,6.668,5.848,6.668,5.848-2.543,5.848-6.668-2.26-6.667-5.848-6.667Zm0,13.278c-3.447,0-5.707-2.6-5.707-6.611s2.232-6.611,5.707-6.611,5.707,2.6,5.707,6.611S518.045,83.8,514.6,83.8Zm0-12.6c-3.136,0-5.057,2.288-5.057,5.989s1.949,5.989,5.057,5.989,5.057-2.288,5.057-5.989S517.706,71.2,514.6,71.2Z" transform="translate(-459.111 -64.786)"/><path class="a" d="M346.31,150.017v.735h-9.662v9.408H335.8V141.4h12.064v.735H336.648v7.882Z" transform="translate(-335.489 -116.086)"/><path class="a" d="M336.169,159.781H334.7V140.4h12.713v1.356H336.169v7.233h9.662v1.356h-9.662Zm-.848-.65h.2v-9.408h9.662v-.113h-9.662v-8.5h11.244v-.113H335.322Z" transform="translate(-334.7 -115.369)"/><path class="a" d="M393.576,159.513v.678h-.056a4.421,4.421,0,0,0-5.029,4.549V173.1H387.7V159.6h.791v2.882h.057a4.388,4.388,0,0,1,4.068-3.079A5.257,5.257,0,0,1,393.576,159.513Z" transform="translate(-372.726 -129.001)"/><path class="a" d="M388.013,172.7H386.6V158.57h1.413v1.949a4.636,4.636,0,0,1,3.814-2.119,6.521,6.521,0,0,1,1.045.085l.254.057v1.243H392.7a4.059,4.059,0,0,0-3.221.932,4.216,4.216,0,0,0-1.469,3.306Zm-.763-.65h.141v-8.052a5.619,5.619,0,0,1,.339-1.921h-.311l-.056-.311v-2.571h-.141v12.855Zm4.577-13.024a3.849,3.849,0,0,0-2.8,1.243l.056-.028a4.56,4.56,0,0,1,3.419-1.1v-.057a2.75,2.75,0,0,0-.678-.057Z" transform="translate(-371.937 -128.283)"/><path class="a" d="M414.4,166.478c0-4.181,2.345-6.978,6.159-6.978s6.159,2.8,6.159,6.978-2.345,6.978-6.159,6.978S414.4,170.66,414.4,166.478Zm11.555,0c0-3.645-1.949-6.3-5.368-6.3s-5.368,2.656-5.368,6.3,1.949,6.3,5.368,6.3S425.955,170.123,425.955,166.478Z" transform="translate(-391.883 -129.072)"/><path class="a" d="M419.7,172.978c-3.927,0-6.5-2.853-6.5-7.289s2.543-7.289,6.5-7.289,6.5,2.853,6.5,7.289S423.653,172.978,419.7,172.978Zm0-13.957c-3.616,0-5.848,2.543-5.848,6.667s2.232,6.668,5.848,6.668,5.848-2.543,5.848-6.668-2.232-6.667-5.848-6.667Zm0,13.279c-3.447,0-5.707-2.6-5.707-6.611s2.232-6.611,5.707-6.611,5.707,2.6,5.707,6.611-2.232,6.611-5.707,6.611Zm0-12.6c-3.136,0-5.057,2.288-5.057,5.989s1.949,5.989,5.057,5.989,5.057-2.288,5.057-5.989-1.921-5.989-5.057-5.989Z" transform="translate(-391.022 -128.283)"/><path class="a" d="M479.945,163.512v9.662h-.791v-9.125c0-2.006-.65-3.871-3.616-3.871s-4.746,2.26-4.746,3.7v9.295H470V159.7h.791v2.43h.056A5.526,5.526,0,0,1,475.9,159.5,3.828,3.828,0,0,1,479.945,163.512Z" transform="translate(-431.775 -129.072)"/><path class="a" d="M479.566,172.7h-1.413v-9.436c0-2.458-1.017-3.531-3.306-3.531-2.91,0-4.436,2.2-4.436,3.39v9.606H469V158.6h1.413v1.865a5.965,5.965,0,0,1,4.8-2.062,4.162,4.162,0,0,1,4.351,4.323Zm-.791-.65h.141v-9.351a3.527,3.527,0,0,0-3.729-3.7,6.282,6.282,0,0,0-1.78.226,5.86,5.86,0,0,1,1.413-.169c2.6,0,3.927,1.413,3.927,4.181Zm-9.154,0h.141V163.09a3.141,3.141,0,0,1,.4-1.441h-.339l-.057-.311v-2.119h-.141Z" transform="translate(-431.057 -128.283)"/><path class="a" d="M517.969,149.729v9.323c0,1.78.028,3.362,2.966,2.74v.678a5.86,5.86,0,0,1-1.413.17c-1.271,0-2.345-.622-2.345-3.362v-9.549H515.2v-.678h1.978V144.7h.791v4.351h2.966v.678Z" transform="translate(-464.205 -118.454)"/><path class="a" d="M518.733,162.162c-1.78,0-2.656-1.187-2.656-3.673v-9.21H514.1v-1.328h1.978V143.6h1.413v4.351h2.966v1.3H517.49v9.012c0,.932,0,1.865.509,2.288a2.587,2.587,0,0,0,2.062.141l.367-.085v1.328l-.254.057A5.923,5.923,0,0,1,518.733,162.162Zm-3.984-13.533h1.978v9.832c0,2.684,1.074,3.051,2.034,3.051a4.864,4.864,0,0,0,1.1-.113v-.056a2.724,2.724,0,0,1-2.232-.339c-.735-.593-.735-1.7-.735-2.769V148.6h2.966v-.056H516.9v-4.351h-.141v4.351h-1.978Z" transform="translate(-463.416 -117.665)"/><path class="a" d="M554.792,169.134h.791a5.262,5.262,0,0,1-5.481,4.323c-3.758,0-6.1-2.8-6.1-6.978,0-4.379,2.458-6.978,6.074-6.978,3.9,0,5.707,2.91,5.707,6.837H544.763v.17c0,3.447,1.78,6.272,5.34,6.272A4.591,4.591,0,0,0,554.792,169.134Zm-10.029-3.475h10.2c0-2.712-1.526-5.481-4.916-5.481C546.74,160.178,544.848,162.806,544.763,165.659Z" transform="translate(-484.868 -129.072)"/><path class="a" d="M549.141,172.978c-3.9,0-6.441-2.853-6.441-7.289s2.514-7.289,6.413-7.289c3.758,0,6.018,2.684,6.018,7.176v.311h-10.99c.057,2.712,1.384,5.792,5,5.792a4.24,4.24,0,0,0,4.379-3.39l.056-.254h1.441l-.085.4A5.563,5.563,0,0,1,549.141,172.978Zm-.028-13.957c-3.56,0-5.763,2.543-5.763,6.667,0,4.04,2.288,6.668,5.792,6.668a4.924,4.924,0,0,0,5.085-3.7h-.141a4.821,4.821,0,0,1-4.944,3.645c-3.419,0-5.65-2.571-5.65-6.583v-.48h10.99c-.085-3.955-2.034-6.215-5.368-6.215Zm5.227,6.159H543.491v-.311c.085-2.8,1.865-5.792,5.622-5.792,3.588,0,5.227,2.995,5.227,5.792Zm-10.171-.622h9.549c-.113-2.458-1.554-4.859-4.577-4.859a4.917,4.917,0,0,0-4.972,4.859Z" transform="translate(-483.936 -128.283)"/><path class="a" d="M607.345,163.512v9.662h-.791v-9.125c0-2.006-.65-3.871-3.616-3.871s-4.746,2.26-4.746,3.7v9.295H597.4V159.7h.791v2.43h.056A5.526,5.526,0,0,1,603.3,159.5,3.842,3.842,0,0,1,607.345,163.512Z" transform="translate(-523.182 -129.072)"/><path class="a" d="M606.866,172.7h-1.413v-9.436c0-2.458-1.017-3.531-3.305-3.531-2.91,0-4.436,2.2-4.436,3.39v9.606H596.3V158.6h1.413v1.865a5.964,5.964,0,0,1,4.8-2.062,4.162,4.162,0,0,1,4.351,4.323Zm-.791-.65h.141v-9.351a3.527,3.527,0,0,0-3.729-3.7,7.641,7.641,0,0,0-1.78.2,5.86,5.86,0,0,1,1.413-.17c2.6,0,3.927,1.413,3.927,4.181v8.843Zm-9.154,0h.141V163.09a3.141,3.141,0,0,1,.4-1.441h-.339l-.057-.311v-2.119h-.141Z" transform="translate(-522.393 -128.283)"/><path class="a" d="M656.068,141.5v18.759h-.791V156.9h-.057a5.341,5.341,0,0,1-5.057,3.645c-3.193,0-5.763-2.571-5.763-6.978s2.571-6.978,5.763-6.978a5.3,5.3,0,0,1,5.057,3.729h.057V141.5Zm-.791,12.064c0-3.927-2.345-6.3-4.944-6.3-3.023,0-5.17,2.373-5.17,6.3s2.147,6.3,5.17,6.3c2.6,0,4.944-2.373,4.944-6.3Z" transform="translate(-556.903 -116.158)"/><path class="a" d="M649.374,160.063c-3.588,0-6.074-2.995-6.074-7.289s2.514-7.289,6.074-7.289a5.437,5.437,0,0,1,4.8,2.769V140.4h1.413v19.381h-1.413v-2.43A5.544,5.544,0,0,1,649.374,160.063Zm0-13.957c-3.249,0-5.453,2.684-5.453,6.668s2.2,6.667,5.453,6.667a4.612,4.612,0,0,0,3.249-1.215,4.732,4.732,0,0,1-3.079,1.158c-3.277,0-5.481-2.656-5.481-6.611s2.2-6.611,5.481-6.611a4.766,4.766,0,0,1,3.023,1.13,4.625,4.625,0,0,0-3.192-1.187Zm5.424,13.052h.141V141.022H654.8v8.815h-.48a9.17,9.17,0,0,1-.028,5.961h.452l.056.311Zm-5.255-12.374c-2.938,0-4.859,2.345-4.859,5.989s1.921,5.989,4.859,5.989c2.288,0,4.605-2.062,4.605-5.989S651.832,146.785,649.544,146.785Z" transform="translate(-556.114 -115.369)"/><path class="a" d="M707.61,169.571c0,2.26-1.893,3.814-4.775,3.814-3.842,0-5.622-1.949-5.735-4.492h.791c.141,2.2,1.808,3.814,4.944,3.814,2.175,0,3.983-1.271,3.983-2.995,0-2.543-2.175-2.8-4.6-3.475-2.74-.735-4.633-1.215-4.633-3.475,0-2.006,1.752-3.362,4.633-3.362,3.306,0,4.633,1.921,4.944,3.786h-.791c-.283-1.526-1.469-3.108-4.153-3.108-1.893,0-3.871.791-3.871,2.684,0,1.808,2.034,2.232,4.52,2.853C705.745,166.378,707.61,167,707.61,169.571Z" transform="translate(-594.714 -129.001)"/><path class="a" d="M701.9,172.978c-3.645,0-5.9-1.78-6.074-4.775l-.028-.339h1.413l.028.311c.141,2.2,1.865,3.5,4.633,3.5,2.062,0,3.673-1.187,3.673-2.684,0-2.034-1.526-2.43-3.645-2.966l-.763-.2L701,165.8c-2.627-.706-4.718-1.271-4.718-3.729,0-2.232,1.949-3.673,4.972-3.673,2.882,0,4.859,1.526,5.255,4.04l.057.367h-1.413l-.057-.254c-.169-.848-.848-2.853-3.842-2.853-1.639,0-3.531.622-3.531,2.373,0,1.413,1.413,1.836,3.9,2.458l.367.085c3.023.763,5,1.469,5,4.238C707.016,171.339,704.954,172.978,701.9,172.978Zm-5.4-4.492c.283,2.458,2.232,3.842,5.4,3.842,2.656,0,4.464-1.413,4.464-3.5,0-2.232-1.441-2.853-4.52-3.645l-.367-.085c-2.345-.593-4.379-1.1-4.379-3.079,0-2.062,2.091-2.995,4.181-2.995,3.221,0,4.153,2.119,4.407,3.108h.141c-.283-1.158-1.243-3.136-4.549-3.136-2.684,0-4.323,1.158-4.323,3.051s1.384,2.345,4.266,3.108l.141.028.734.2c2.119.537,4.1,1.045,4.1,3.588,0,1.865-1.893,3.305-4.294,3.305-2.966,0-4.972-1.441-5.255-3.814Z" transform="translate(-593.782 -128.283)"/></g><rect class="b" width="23.393" height="1.187" transform="matrix(0.891, -0.453, 0.453, 0.891, 40.723, 16.78)"/><path class="b" d="M116.251,81.753a1,1,0,0,1-.283-.057L95.683,70.763a.6.6,0,0,1-.311-.509l-.057-20.794L76.811,39.488a.6.6,0,0,1-.311-.509V16.293a.6.6,0,0,1,.593-.593,1,1,0,0,1,.283.057l39.157,21.415a.6.6,0,0,1,.311.509V59.01l18.505-10.651.593,1.017-19.07,10.99V81.16a.621.621,0,0,1-.622.593ZM96.559,69.888l19.1,10.312v-19.8L96.5,50.111ZM96.5,48.755l19.155,10.284V38.047L96.446,27.538ZM77.687,38.641l17.658,9.493-.057-21.217-17.6-9.634Z" transform="translate(-54.887 -9.399)"/><path class="b" d="M28.778,118.365l-18.9-11.16a.569.569,0,0,1-.2-.791.86.86,0,0,1,.226-.226l18.9-9.888.537,1.045-17.94,9.38,18,10.623Z" transform="translate(-6.882 -67.228)"/><path class="b" d="M77.093,166.7a.6.6,0,0,1-.593-.593h0V144.044a.631.631,0,0,1,.283-.509L95.372,132.8l.593,1.017L77.687,144.383v20.652l18-11.3.622.989L77.4,166.59A.425.425,0,0,1,77.093,166.7Z" transform="translate(-54.887 -93.416)"/><rect class="b" width="11.979" height="1.187" transform="translate(61.104 27.787) rotate(-27.918)"/><path class="b" d="M64.146,80.354H25.017A1.153,1.153,0,0,1,24,79.761L4.223,44.587a1.2,1.2,0,0,1,0-1.158L24,9.865A1.223,1.223,0,0,1,25.017,9.3H64.146a1.187,1.187,0,0,1,1.017.593L84.77,43.457a1.2,1.2,0,0,1,0,1.158L65.191,79.789A1.273,1.273,0,0,1,64.146,80.354ZM25.723,78.009H63.468L82.4,44.022,63.468,11.617H25.695L6.6,44.022Z" transform="translate(-2.924 -4.807)"/><circle class="b" cx="3.305" cy="3.305" r="3.305" transform="translate(76.409 35.913) rotate(-3.84)"/><circle class="b" cx="3.305" cy="3.305" r="3.305" transform="translate(0 35.683)"/><circle class="b" cx="3.305" cy="3.305" r="3.305" transform="translate(58.708 2.6)"/><circle class="b" cx="3.305" cy="3.305" r="3.305" transform="translate(58.354 71.004) rotate(-3.84)"/><circle class="b" cx="3.305" cy="3.305" r="3.305" transform="translate(18.675 2.77)"/><circle class="b" cx="3.305" cy="3.305" r="3.305" transform="translate(18.675 70.772)"/></g></svg>