<svg xmlns="http://www.w3.org/2000/svg" width="190.731" height="78.802" viewBox="0 0 190.731 78.802"><defs><style>.a{fill:#63c6c1;}.b{fill:#74daae;}</style></defs><path class="a" d="M11.362,64.415a.56.56,0,0,1-.562-.535.585.585,0,0,1,.348-.535l10.271-4.574L41.853,21.219V9.1a.561.561,0,0,1,.588-.508.546.546,0,0,1,.508.508V21.379a.95.95,0,0,1-.053.267L22.3,59.494a.585.585,0,0,1-.267.241L11.6,64.388A.74.74,0,0,1,11.362,64.415Z" transform="translate(-7.911 -6.294)"/><path class="a" d="M103.529,201.918a.5.5,0,0,1-.214-.053L91.867,197H50.383a.55.55,0,1,1-.08-1.1H92a.5.5,0,0,1,.214.053l11.528,4.948a.529.529,0,0,1,.294.722.5.5,0,0,1-.508.294Z" transform="translate(-36.475 -143.503)"/><path class="a" d="M42.451,116.032a.569.569,0,0,1-.4-.187l-20.6-22.762a.538.538,0,0,1-.107-.214l-10.431-32.2a.549.549,0,0,1,.348-.7.1.1,0,0,0,.08-.027L42.37,54.3h.187l32.471,5.777a.567.567,0,0,1,.455.642.1.1,0,0,1-.027.08L64.009,92.9a.431.431,0,0,1-.107.187L42.879,115.844A.532.532,0,0,1,42.451,116.032ZM22.364,92.414l20.114,22.227L63.019,92.414,74.2,61.04,42.451,55.423l-30.277,5.51Z" transform="translate(-7.974 -39.776)"/><path class="a" d="M148.489,93.434a.505.505,0,0,1-.481-.294l-21.05-37.847a.522.522,0,0,1,.294-.722.585.585,0,0,1,.7.187L148.97,92.6a.535.535,0,0,1-.214.749.516.516,0,0,1-.267.08Z" transform="translate(-92.963 -39.94)"/><path class="a" d="M38.945,80.977a1.053,1.053,0,0,1-.562-.16L6.635,62.121a1.158,1.158,0,0,1-.535-.963V24.114a1.123,1.123,0,0,1,.562-.963L38.383,4.615a1.141,1.141,0,0,1,1.1,0l33.3,18.536a1.091,1.091,0,0,1,.562.963V61.158a1.091,1.091,0,0,1-.562.963L39.507,80.844A.975.975,0,0,1,38.945,80.977ZM8.293,60.516,38.972,78.6,71.148,60.516V24.782L38.972,6.835,8.293,24.756Z" transform="translate(-4.468 -3.278)"/><circle class="a" cx="3.129" cy="3.129" r="3.129" transform="translate(31.16 0)"/><circle class="a" cx="3.129" cy="3.129" r="3.129" transform="translate(31.158 78.777) rotate(-89.775)"/><circle class="a" cx="3.129" cy="3.129" r="3.129" transform="translate(0.08 17.145)"/><circle class="a" cx="3.129" cy="3.129" r="3.129" transform="translate(64.38 17.091)"/><circle class="a" cx="3.129" cy="3.129" r="3.129" transform="translate(0 54.858)"/><circle class="a" cx="3.129" cy="3.129" r="3.129" transform="translate(64.1 60.807) rotate(-84.622)"/><g transform="translate(82.487 18.937)"><path class="b" d="M310.3,72.9v7.971H321.67V72.9h.8V90.66h-.8V81.566H310.3V90.66h-.8V72.9Z" transform="translate(-309.206 -72.338)"/><path class="b" d="M321.934,90.175h-1.391V81.081H309.791v9.094H308.4V71.8h1.391v7.971h10.752V71.8h1.391Zm-.8-.615h.187V72.388h-.187v7.971H309.2V72.388h-.187V89.56h.187V80.466h11.956Z" transform="translate(-308.4 -71.533)"/><path class="b" d="M373.6,76.283a.583.583,0,0,1,.615-.588h0a.578.578,0,0,1,.615.562v.027a.583.583,0,0,1-.615.588h0A.6.6,0,0,1,373.6,76.283Zm.99,3.664V92.733h-.749V79.948Z" transform="translate(-356.161 -74.384)"/><path class="b" d="M374.1,92.223h-1.337V78.849H374.1Zm-.749-.615h.134V79.438h-.134Zm.053-15.219a.9.9,0,1,1,0-1.792h.027a.874.874,0,0,1,.909.856v.027a.942.942,0,0,1-.936.909Zm0-1.2a.321.321,0,0,0-.321.294.342.342,0,0,0,.321.294.321.321,0,0,0,.321-.294.3.3,0,0,0-.321-.294Z" transform="translate(-355.355 -73.58)"/><path class="b" d="M403.946,84.348c0,4.173-2.434,6.606-5.456,6.606A5.056,5.056,0,0,1,393.7,87.5h-.053v3.183H392.9V72.9h.749v8.345h.053a5.016,5.016,0,0,1,4.788-3.531C401.512,77.714,403.946,80.148,403.946,84.348Zm-.749,0c0-3.718-2.033-5.965-4.895-5.965-2.461,0-4.681,2.247-4.681,5.965s2.22,5.965,4.681,5.965c2.862-.027,4.895-2.247,4.895-5.965Z" transform="translate(-370.299 -72.338)"/><path class="b" d="M397.684,90.443a5.241,5.241,0,0,1-4.547-2.568v2.3H391.8V71.8h1.337v7.436a5.148,5.148,0,0,1,4.547-2.621c3.4,0,5.751,2.835,5.751,6.9S401.054,90.443,397.684,90.443Zm-3.1-1.739a4.536,4.536,0,0,0,3.076,1.15c3.076,0,5.162-2.541,5.162-6.312s-2.086-6.312-5.162-6.312a4.4,4.4,0,0,0-3.049,1.123,4.368,4.368,0,0,1,2.862-1.07c3.1,0,5.189,2.514,5.189,6.259S400.573,89.8,397.47,89.8A4.612,4.612,0,0,1,394.582,88.7Zm-2.193.856h.134V86.377H393a8.681,8.681,0,0,1-.027-5.644h-.4l-.053-.294V72.388h-.134ZM397.5,77.872c-2.166,0-4.36,1.953-4.36,5.67s2.193,5.67,4.36,5.67c2.782,0,4.6-2.22,4.6-5.67s-1.819-5.67-4.6-5.67Z" transform="translate(-369.493 -71.533)"/><path class="b" d="M451.763,90.98v.642h-.053a4.185,4.185,0,0,0-4.761,4.306v7.917H446.2V91.087h.749v2.728H447a4.154,4.154,0,0,1,3.852-2.915A5.224,5.224,0,0,1,451.763,90.98Z" transform="translate(-409.343 -85.524)"/><path class="b" d="M446.437,103.434H445.1V90.06h1.337v1.846a4.389,4.389,0,0,1,3.611-2.006,6.173,6.173,0,0,1,.99.08l.241.053v1.177h-.4a3.843,3.843,0,0,0-3.049.883,3.991,3.991,0,0,0-1.391,3.129Zm-.749-.615h.134V95.2a5.319,5.319,0,0,1,.321-1.819h-.267l-.053-.294V90.649h-.134Zm4.333-12.33a3.644,3.644,0,0,0-2.648,1.177l.053-.027a4.317,4.317,0,0,1,3.236-1.043v-.053a2.6,2.6,0,0,0-.642-.053Z" transform="translate(-408.537 -84.791)"/><path class="b" d="M480.27,104.786c-.909,2.407-1.5,3.771-3.183,3.771a4.746,4.746,0,0,1-1.5-.241v-.642h.054c.856.16,1.9.4,2.487-.214a8.3,8.3,0,0,0,1.525-3.129L474.6,91.6h.8l4.6,11.715h.027L484.47,91.6h.8Z" transform="translate(-430.147 -86.037)"/><path class="b" d="M475.915,108.146a4.552,4.552,0,0,1-1.578-.267l-.214-.053v-1.15h.4c.829.16,1.739.348,2.22-.134a7.968,7.968,0,0,0,1.418-2.915L473,90.6h1.444l4.413,11.207L483.11,90.6h1.444l-5.162,13.614C478.483,106.461,477.868,108.146,475.915,108.146Zm-1.2-.776a4.506,4.506,0,0,0,1.2.16c1.471,0,1.979-1.177,2.889-3.584l4.868-12.785h-.16l-4.44,11.715h-.4l-.107-.187-4.547-11.5h-.16l4.921,12.411-.027.107a8.469,8.469,0,0,1-1.6,3.263,2.69,2.69,0,0,1-2.434.374Z" transform="translate(-428.975 -85.304)"/><path class="b" d="M531.246,72.9V90.66H530.5V87.477h-.053a5.056,5.056,0,0,1-4.788,3.45c-3.022,0-5.456-2.434-5.456-6.606s2.434-6.606,5.456-6.606a5.016,5.016,0,0,1,4.788,3.531h.053V72.9Zm-.722,11.448c0-3.718-2.22-5.965-4.681-5.965-2.862,0-4.895,2.247-4.895,5.965s2.033,5.965,4.895,5.965c2.461-.027,4.681-2.247,4.681-5.965Z" transform="translate(-463.55 -72.338)"/><path class="b" d="M524.851,90.443c-3.4,0-5.751-2.835-5.751-6.9s2.38-6.9,5.751-6.9a5.148,5.148,0,0,1,4.547,2.621V71.8h1.337V90.175H529.4v-2.3A5.3,5.3,0,0,1,524.851,90.443Zm0-13.213c-3.076,0-5.162,2.541-5.162,6.312s2.086,6.312,5.162,6.312a4.366,4.366,0,0,0,3.076-1.15,4.48,4.48,0,0,1-2.915,1.1c-3.1,0-5.189-2.514-5.189-6.259s2.086-6.259,5.189-6.259a4.367,4.367,0,0,1,2.862,1.07A4.288,4.288,0,0,0,524.851,77.23Zm5.162,12.33h.134V72.388h-.134v8.345h-.455a8.681,8.681,0,0,1-.027,5.644h.428l.053.294Zm-4.975-11.688c-2.782,0-4.6,2.22-4.6,5.67s1.792,5.67,4.6,5.67c2.166,0,4.36-1.953,4.36-5.67s-2.193-5.67-4.36-5.67Z" transform="translate(-462.745 -71.533)"/><path class="b" d="M612.463,89.927l-1.926-2.541a6.261,6.261,0,0,1-5.216,2.808A4.626,4.626,0,0,1,600.4,85.3c0-2.889,2.3-4.547,4.226-5.644-1.257-1.578-2.273-2.835-2.273-4.413a3.288,3.288,0,0,1,3.584-3.343,3.4,3.4,0,0,1,3.584,3.343c0,2.006-1.337,3.317-3.745,4.707l4.734,6.125a9.811,9.811,0,0,0,1.043-3.771h.8a10.23,10.23,0,0,1-1.337,4.413l2.461,3.236h-1.016Zm-2.407-3.156-4.761-6.232a1.471,1.471,0,0,1-.187-.241c-1.846,1.016-3.932,2.354-3.932,5.028a3.87,3.87,0,0,0,4.119,4.2,5.634,5.634,0,0,0,4.761-2.755Zm-4.788-7.436h0c1.6-.883,3.45-1.9,3.45-4.066a2.622,2.622,0,0,0-2.782-2.648,2.531,2.531,0,0,0-2.782,2.648c0,1.444,1.043,2.7,2.113,4.066Z" transform="translate(-522.299 -71.606)"/><path class="b" d="M604.516,89.71a4.921,4.921,0,0,1-5.216-5.189c0-2.862,2.113-4.574,4.065-5.724-1.123-1.391-2.113-2.7-2.113-4.333a3.6,3.6,0,0,1,3.878-3.664,3.685,3.685,0,0,1,3.878,3.664c0,2.3-1.685,3.664-3.611,4.788l4.226,5.456a9.6,9.6,0,0,0,.8-3.236l.027-.294h1.391l-.027.321a10.655,10.655,0,0,1-1.284,4.386l2.728,3.557h-1.739l-1.792-2.327A6.524,6.524,0,0,1,604.516,89.71Zm.615-18.322a3,3,0,0,0-3.29,3.049c0,1.525,1.016,2.782,2.193,4.226l.214.267-.294.16c-1.9,1.1-4.066,2.675-4.066,5.376a4.332,4.332,0,0,0,4.627,4.6,5.933,5.933,0,0,0,4.975-2.675l.241-.321,2.086,2.728h.241l-2.247-2.915.107-.16a10.42,10.42,0,0,0,1.284-3.985h-.214a10.589,10.589,0,0,1-1.043,3.611l-.214.428-4.975-6.446v.027l-.722-.909c-1.016-1.311-2.006-2.541-2.006-4.039a2.836,2.836,0,0,1,3.076-2.969,2.919,2.919,0,0,1,3.076,2.969c0,2.3-1.872,3.37-3.45,4.253v.214l.054-.027c2.594-1.471,3.611-2.7,3.611-4.44a3.093,3.093,0,0,0-3.263-3.022Zm0,.7a2.262,2.262,0,0,0-2.487,2.354c0,1.284.909,2.434,1.872,3.664l.027.027c1.471-.8,3.076-1.765,3.076-3.691a2.354,2.354,0,0,0-2.487-2.354Zm-.615,16.931a4.178,4.178,0,0,1-4.413-4.493c0-2.782,2.113-4.172,4.065-5.269l.268-.16.134.267a.369.369,0,0,0,.08.107c.027.027.054.08.08.107l4.895,6.392-.134.187A5.91,5.91,0,0,1,604.516,89.015Zm-.294-9.121c-1.739.99-3.531,2.273-3.531,4.627a3.59,3.59,0,0,0,3.825,3.905,5.343,5.343,0,0,0,4.386-2.434l-4.627-6.072Z" transform="translate(-521.494 -70.8)"/><path class="b" d="M309.5,161.5h1.177l7.034,16.69h.054l7.061-16.69H326v17.76h-.8V162.677h-.054l-6.981,16.583h-.856l-6.954-16.583H310.3V179.26h-.8Z" transform="translate(-309.206 -137.241)"/><path class="b" d="M325.538,178.748h-1.391v-15.54l-6.526,15.54h-1.23l-6.5-15.513v15.513H308.5V160.4h1.658l6.847,16.289,6.874-16.289h1.658Zm-.8-.588h.214V160.988h-.669l-7.061,16.69h-.4l-.134-.187-6.954-16.5h-.669V178.16h.187V161.577h.508l.134.187,6.874,16.423h.455L324.2,161.6h.508l.053.294Z" transform="translate(-308.473 -136.435)"/><path class="b" d="M395.815,180.027v12.758h-.749v-2.3h-.053a5.284,5.284,0,0,1-4.788,2.487,3.637,3.637,0,0,1-3.825-3.8v-9.147h.749v8.639c0,1.9.615,3.638,3.424,3.638s4.493-2.14,4.493-3.5V180h.749Z" transform="translate(-365.538 -150.793)"/><path class="b" d="M389.519,192.487A3.94,3.94,0,0,1,385.4,188.4v-9.468h1.337v8.933c0,2.327.963,3.343,3.129,3.343,2.755,0,4.2-2.086,4.2-3.21V178.9H395.4v13.373h-1.337v-1.792A5.529,5.529,0,0,1,389.519,192.487Zm-3.531-12.945V188.4a3.339,3.339,0,0,0,3.531,3.5,7.546,7.546,0,0,0,1.739-.214,4.834,4.834,0,0,1-1.391.16c-2.461,0-3.718-1.337-3.718-3.959v-8.345Zm8.666,12.17h.134v-12.17h-.134v8.479a3.066,3.066,0,0,1-.374,1.364h.321l.053.294Z" transform="translate(-364.805 -149.987)"/><path class="b" d="M437.149,161.5v17.76H436.4V161.5Z" transform="translate(-402.164 -137.241)"/><path class="b" d="M436.637,178.675H435.3V160.3h1.337Zm-.749-.588h.134V160.915h-.134Z" transform="translate(-401.358 -136.362)"/><path class="b" d="M453.321,169.561v8.826c0,1.685.027,3.183,2.808,2.594v.642a5.547,5.547,0,0,1-1.337.16c-1.2,0-2.22-.588-2.22-3.183v-9.04H450.7v-.642h1.872V164.8h.749v4.119h2.808v.642Z" transform="translate(-412.639 -139.658)"/><path class="b" d="M453.986,181.173c-1.685,0-2.514-1.123-2.514-3.477v-8.719H449.6v-1.257h1.872V163.6h1.337v4.119h2.808v1.23H452.81v8.532c0,.883,0,1.765.481,2.166.348.294,1.016.321,1.979.134l.374-.08v1.257l-.241.054A6.4,6.4,0,0,1,453.986,181.173Zm-3.771-12.812h1.872v9.308c0,2.541,1.016,2.889,1.9,2.889a4.606,4.606,0,0,0,1.043-.107V180.4a2.579,2.579,0,0,1-2.113-.321c-.7-.562-.7-1.6-.7-2.621v-9.121h2.808v-.054h-2.808v-4.119h-.134v4.119h-1.872Z" transform="translate(-411.834 -138.779)"/><path class="b" d="M483.3,164.883a.583.583,0,0,1,.615-.588h0a.578.578,0,0,1,.615.562v.027a.583.583,0,0,1-.615.588h0A.637.637,0,0,1,483.3,164.883Zm.99,3.638v12.758h-.749V168.521Z" transform="translate(-436.52 -139.287)"/><path class="b" d="M483.8,180.649h-1.337V167.276H483.8Zm-.749-.588h.134v-12.17h-.134Zm.054-15.246a.909.909,0,1,1,0-1.819h.027a.874.874,0,0,1,.909.856v.027a.9.9,0,0,1-.936.936Zm0-1.177a.321.321,0,0,0-.321.294.342.342,0,0,0,.321.294.321.321,0,0,0,.321-.294.257.257,0,0,0-.321-.294Z" transform="translate(-435.714 -138.336)"/><path class="b" d="M506.011,180.142c-3.343,0-5.162,2.835-5.162,5.965s1.819,5.965,5.162,5.965a4.225,4.225,0,0,0,4.413-3.8h.749a4.956,4.956,0,0,1-5.162,4.44c-3.5,0-5.911-2.648-5.911-6.606s2.407-6.606,5.911-6.606a4.968,4.968,0,0,1,5.162,4.333h-.749A4.308,4.308,0,0,0,506.011,180.142Z" transform="translate(-448.826 -150.426)"/><path class="b" d="M505.205,192.2c-3.718,0-6.205-2.782-6.205-6.9s2.487-6.9,6.205-6.9a5.259,5.259,0,0,1,5.456,4.6l.053.321h-1.364l-.027-.267a3.975,3.975,0,0,0-4.119-3.424c-3.343,0-4.868,2.942-4.868,5.67s1.525,5.67,4.868,5.67a3.953,3.953,0,0,0,4.119-3.531l.027-.267h1.337l-.027.321A5.257,5.257,0,0,1,505.205,192.2Zm0-13.213c-3.343,0-5.617,2.541-5.617,6.312s2.247,6.312,5.617,6.312a4.728,4.728,0,0,0,4.841-3.852h-.134a4.58,4.58,0,0,1-4.681,3.8c-3.745,0-5.456-3.236-5.456-6.259s1.712-6.259,5.456-6.259a4.616,4.616,0,0,1,4.681,3.691h.134a4.756,4.756,0,0,0-4.841-3.745Z" transform="translate(-448.021 -149.62)"/><path class="b" d="M553.849,161.5v17.76H553.1V161.5Z" transform="translate(-487.651 -137.241)"/><path class="b" d="M553.337,178.675H552V160.3h1.337Zm-.749-.588h.134V160.915h-.134Z" transform="translate(-486.845 -136.362)"/><path class="b" d="M568.2,186.106c0-3.959,2.22-6.606,5.831-6.606s5.831,2.648,5.831,6.606-2.22,6.606-5.831,6.606S568.2,190.065,568.2,186.106Zm10.913,0c0-3.45-1.846-5.965-5.082-5.965s-5.082,2.514-5.082,5.965,1.846,5.965,5.082,5.965,5.082-2.514,5.082-5.965Z" transform="translate(-498.712 -150.426)"/><path class="b" d="M573.152,192.128c-3.745,0-6.152-2.7-6.152-6.9s2.407-6.927,6.152-6.927,6.152,2.7,6.152,6.9S576.87,192.128,573.152,192.128Zm0-13.213c-3.424,0-5.537,2.407-5.537,6.312s2.113,6.312,5.537,6.312,5.537-2.407,5.537-6.312-2.113-6.312-5.537-6.312Zm0,12.571c-3.263,0-5.4-2.461-5.4-6.259s2.113-6.259,5.4-6.259,5.4,2.461,5.4,6.259-2.14,6.259-5.4,6.259Zm0-11.929c-2.969,0-4.788,2.166-4.788,5.67s1.819,5.67,4.788,5.67,4.788-2.166,4.788-5.67S576.094,179.557,573.152,179.557Z" transform="translate(-497.833 -149.547)"/><path class="b" d="M632.915,180.027v12.758h-.749v-2.3h-.053a5.284,5.284,0,0,1-4.788,2.487,3.637,3.637,0,0,1-3.825-3.8v-9.147h.749v8.639c0,1.9.615,3.638,3.424,3.638s4.493-2.14,4.493-3.5V180h.749Z" transform="translate(-539.221 -150.793)"/><path class="b" d="M626.519,192.487A3.94,3.94,0,0,1,622.4,188.4v-9.468h1.337v8.933c0,2.327.963,3.343,3.129,3.343,2.755,0,4.2-2.086,4.2-3.21V178.9H632.4v13.373h-1.337v-1.792A5.46,5.46,0,0,1,626.519,192.487Zm-3.531-12.945V188.4a3.339,3.339,0,0,0,3.531,3.5,7.547,7.547,0,0,0,1.739-.214,6,6,0,0,1-1.391.16c-2.461,0-3.718-1.337-3.718-3.959v-8.345Zm8.666,12.17h.134v-12.17h-.134v8.479a3.066,3.066,0,0,1-.374,1.364h.321l.053.294Z" transform="translate(-538.415 -149.987)"/><path class="b" d="M681.746,161.5v17.76H681v-3.183h-.054a5.056,5.056,0,0,1-4.788,3.45c-3.022,0-5.456-2.434-5.456-6.606s2.434-6.606,5.456-6.606a5.016,5.016,0,0,1,4.788,3.531H681V161.5ZM681,172.921c0-3.718-2.22-5.965-4.681-5.965-2.862,0-4.895,2.247-4.895,5.965s2.033,5.965,4.895,5.965c2.487,0,4.681-2.247,4.681-5.965Z" transform="translate(-573.796 -137.241)"/><path class="b" d="M675.277,179.016c-3.4,0-5.777-2.835-5.777-6.9s2.38-6.9,5.777-6.9a5.148,5.148,0,0,1,4.547,2.621V160.4h1.337v18.348h-1.337v-2.3A5.185,5.185,0,0,1,675.277,179.016Zm0-13.213c-3.1,0-5.162,2.541-5.162,6.312s2.086,6.312,5.162,6.312a4.366,4.366,0,0,0,3.076-1.15,4.48,4.48,0,0,1-2.915,1.1c-3.1,0-5.189-2.514-5.189-6.259s2.086-6.259,5.189-6.259a4.512,4.512,0,0,1,2.862,1.07,4.288,4.288,0,0,0-3.022-1.123Zm5.162,12.357h.134V160.988h-.134v8.345h-.455a8.681,8.681,0,0,1-.027,5.644h.428l.053.294Zm-4.975-11.715c-2.782,0-4.6,2.22-4.6,5.67s1.792,5.644,4.6,5.644c2.166,0,4.36-1.953,4.36-5.67s-2.193-5.644-4.36-5.644Z" transform="translate(-572.917 -136.435)"/></g><path class="a" d="M148.485,93.338a.539.539,0,0,1-.294-.08l-21.05-13.828a.525.525,0,0,1-.241-.455V54.9a.561.561,0,0,1,.588-.508A.546.546,0,0,1,128,54.9V78.654l20.782,13.641a.557.557,0,0,1,.16.776.678.678,0,0,1-.455.267Z" transform="translate(-92.958 -39.844)"/><path class="a" d="M50.462,158.978a.565.565,0,0,1-.562-.562.526.526,0,0,1,.241-.455l20.6-13.8a.548.548,0,0,1,.776.776.813.813,0,0,1-.187.134l-20.6,13.8A.409.409,0,0,1,50.462,158.978Z" transform="translate(-36.553 -105.485)"/></svg>