<svg xmlns="http://www.w3.org/2000/svg" width="194.133" height="57.343" viewBox="0 0 194.133 57.343"><defs><style>.a{fill:#63c6c1;}.b{fill:#74daae;}</style></defs><g transform="translate(0 0.41)"><circle class="a" cx="3.17" cy="3.17" r="3.17" transform="translate(59.229 50.593)"/><circle class="a" cx="3.17" cy="3.17" r="3.17" transform="translate(20.447 22.147)"/><circle class="a" cx="3.162" cy="3.162" r="3.162" transform="translate(58.714 14.783)"/><circle class="a" cx="3.162" cy="3.162" r="3.162" transform="translate(0 7.082)"/><circle class="a" cx="3.17" cy="3.17" r="3.17" transform="translate(31.827 -0.41)"/><circle class="a" cx="3.162" cy="3.162" r="3.162" transform="translate(4.968 49.958)"/><circle class="a" cx="3.162" cy="3.162" r="3.162" transform="translate(24.494 42.527)"/><path class="a" d="M69.735,82.645a1.1,1.1,0,0,1-.659-.219L8.537,37.5a1.112,1.112,0,0,1,1.334-1.78L70.4,80.647a1.107,1.107,0,0,1-.662,2Z" transform="translate(-5.933 -26.326)"/><rect class="a" width="58.456" height="1.107" transform="translate(7.199 54.336) rotate(-62.13)"/><path class="b" d="M284.95,80.36V98.072h-.8V80.36Z" transform="translate(-208.332 -59.219)"/><path class="b" d="M284.45,97.557h-1.39V79.24h1.39Zm-.8-.6h.195V79.838h-.2Z" transform="translate(-207.533 -58.398)"/><path class="b" d="M300.53,104.963c0-3.941,2.207-6.593,5.825-6.593s5.825,2.652,5.825,6.593-2.207,6.593-5.825,6.593S300.53,108.9,300.53,104.963Zm10.905,0c0-3.445-1.833-5.947-5.07-5.947s-5.07,2.5-5.07,5.947,1.833,5.947,5.07,5.947S311.435,108.411,311.435,104.963Z" transform="translate(-220.342 -72.423)"/><path class="b" d="M305.534,111.041c-3.719,0-6.124-2.706-6.124-6.892s2.4-6.889,6.124-6.889,6.124,2.706,6.124,6.889S309.253,111.041,305.534,111.041Zm0-13.184c-3.41,0-5.526,2.4-5.526,6.294s2.118,6.294,5.526,6.294,5.526-2.4,5.526-6.294S308.941,97.858,305.534,97.858Zm0,12.541c-3.269,0-5.379-2.452-5.379-6.246s2.111-6.246,5.379-6.246,5.379,2.452,5.379,6.246-2.111,6.244-5.379,6.244Zm0-11.895c-2.951,0-4.781,2.164-4.781,5.649s1.833,5.649,4.781,5.649,4.781-2.164,4.781-5.649-1.833-5.651-4.781-5.651Z" transform="translate(-219.52 -71.609)"/><path class="b" d="M359.431,81.094H353.11V80.4h13.432v.694h-6.318V98.112h-.8Z" transform="translate(-258.892 -59.248)"/><path class="b" d="M359.708,97.557h-1.39V80.531H352V79.24h14.03v1.291h-6.321Zm-.8-.6h.2V79.934h6.321v-.1H352.595v.1h6.321Z" transform="translate(-258.078 -58.398)"/><path class="b" d="M451.267,97.309l-1.934-2.527a6.229,6.229,0,0,1-5.206,2.8A4.611,4.611,0,0,1,439.22,92.7c0-2.874,2.305-4.536,4.213-5.625-1.265-1.561-2.255-2.826-2.255-4.411a3.281,3.281,0,0,1,3.57-3.346,3.386,3.386,0,0,1,3.57,3.346c0,2.009-1.334,3.322-3.736,4.685l4.717,6.1a9.729,9.729,0,0,0,1.041-3.768h.8a10.318,10.318,0,0,1-1.334,4.411l2.457,3.218Zm-2.4-3.149-4.757-6.22a1.794,1.794,0,0,1-.173-.248c-1.833,1.017-3.917,2.356-3.917,5.006a3.874,3.874,0,0,0,4.114,4.189,5.63,5.63,0,0,0,4.731-2.719Zm-4.784-7.434a.024.024,0,0,1,.024-.024c1.585-.867,3.421-1.884,3.421-4.04a2.625,2.625,0,0,0-2.775-2.652,2.526,2.526,0,0,0-2.775,2.652c0,1.468,1.035,2.708,2.1,4.072Z" transform="translate(-322.026 -58.456)"/><path class="b" d="M443.316,97.074a4.916,4.916,0,0,1-5.206-5.182c0-2.858,2.108-4.552,4.061-5.71-1.11-1.377-2.1-2.7-2.1-4.328a3.6,3.6,0,0,1,3.866-3.645,3.67,3.67,0,0,1,3.866,3.645c0,2.287-1.692,3.658-3.6,4.773l4.205,5.443a9.4,9.4,0,0,0,.8-3.221l.016-.267h1.4l-.021.32a10.646,10.646,0,0,1-1.278,4.368l2.727,3.543H450.3l-1.782-2.332A6.422,6.422,0,0,1,443.316,97.074Zm.619-18.267a2.993,2.993,0,0,0-3.271,3.047c0,1.516,1.014,2.772,2.188,4.224l.221.267-.3.173c-1.892,1.081-4.064,2.668-4.064,5.366a4.307,4.307,0,0,0,4.608,4.584,5.957,5.957,0,0,0,4.96-2.668l.235-.331L450.6,96.2h.237l-2.228-2.908.1-.173a9.922,9.922,0,0,0,1.27-3.962h-.192a10.1,10.1,0,0,1-1.051,3.6l-.213.419-4.958-6.42h0l-.712-.91c-1.025-1.3-1.99-2.537-1.99-4.021a2.824,2.824,0,0,1,3.074-2.951,2.915,2.915,0,0,1,3.074,2.951c0,2.281-1.868,3.37-3.445,4.232v.221l.051-.029c2.586-1.465,3.591-2.706,3.591-4.424a3.091,3.091,0,0,0-3.271-3.034Zm0,.694a2.228,2.228,0,0,0-2.476,2.353c0,1.278.9,2.431,1.868,3.653l.016.021c1.481-.8,3.074-1.766,3.074-3.674A2.35,2.35,0,0,0,443.935,79.5Zm-.619,16.879a4.177,4.177,0,0,1-4.413-4.488c0-2.78,2.1-4.176,4.069-5.267l.267-.152.139.267a.908.908,0,0,0,.08.117l.075.1,4.878,6.374-.12.179a5.9,5.9,0,0,1-4.974,2.871Zm-.288-9.1c-1.748.99-3.527,2.265-3.527,4.613a3.574,3.574,0,0,0,3.816,3.89,5.3,5.3,0,0,0,4.365-2.42Z" transform="translate(-321.212 -57.642)"/><path class="b" d="M535.47,88.314V89h-9.987v8.378h11.1v.694H524.69V80.36h11.649v.7H525.482v7.263Z" transform="translate(-384.691 -59.219)"/><path class="b" d="M536.063,97.557H523.57V79.24h12.245v1.291H524.96V87.2h9.987v1.291H524.96v7.781h11.1Zm-11.9-.6h11.3v-.1h-11.1V87.89h10v-.1h-10V79.934h10.854v-.1H524.168Z" transform="translate(-383.869 -58.398)"/><path class="b" d="M589.4,80.36V98.072h-.745V94.907h-.051a5.067,5.067,0,0,1-4.784,3.445c-3.023,0-5.451-2.428-5.451-6.593s2.428-6.593,5.451-6.593a5,5,0,0,1,4.784,3.519h.051V80.36Zm-.745,11.4c0-3.717-2.206-5.947-4.659-5.947-2.85,0-4.883,2.231-4.883,5.947s2.033,5.948,4.883,5.948c2.455,0,4.661-2.231,4.661-5.95Z" transform="translate(-424.048 -59.219)"/><path class="b" d="M583.01,97.83c-3.386,0-5.75-2.834-5.75-6.892s2.364-6.889,5.75-6.889a5.12,5.12,0,0,1,4.536,2.612V79.24h1.334V97.557h-1.334v-2.3A5.227,5.227,0,0,1,583.01,97.83Zm0-13.184c-3.082,0-5.155,2.529-5.155,6.294s2.071,6.294,5.155,6.294a4.448,4.448,0,0,0,3.082-1.147,4.48,4.48,0,0,1-2.908,1.1c-3.1,0-5.182-2.511-5.182-6.246s2.081-6.246,5.182-6.246a4.472,4.472,0,0,1,2.863,1.067,4.4,4.4,0,0,0-3.036-1.115Zm5.12,12.314h.147V79.838h-.147v8.328h-.454a8.713,8.713,0,0,1-.027,5.625h.43l.051.3Zm-4.958-11.671c-2.786,0-4.584,2.217-4.584,5.649s1.8,5.649,4.584,5.649c2.167,0,4.36-1.94,4.36-5.649s-2.18-5.649-4.347-5.649Z" transform="translate(-423.234 -58.398)"/><path class="b" d="M642.663,98.487v12.044c0,3.37-2.081,4.931-5.353,4.931-3.22,0-5.07-1.684-5.254-3.594h.744c.267,1.513,1.636,2.935,4.512,2.935,2.775,0,4.611-1.363,4.611-4.312v-3.1h-.051a5.024,5.024,0,0,1-4.784,3.1c-2.775,0-5.379-1.932-5.379-6.1s2.6-6.1,5.379-6.1a4.936,4.936,0,0,1,4.784,3.173h.053V98.487Zm-.737,5.931c0-3.717-2.455-5.454-4.659-5.454-2.6,0-4.8,1.734-4.8,5.454s2.206,5.451,4.8,5.451C639.464,109.869,641.927,108.135,641.927,104.418Z" transform="translate(-463.155 -72.372)"/><path class="b" d="M636.509,114.957c-3.557,0-5.352-1.94-5.553-3.861l-.035-.328h1.334l.045.245c.307,1.692,1.881,2.7,4.219,2.7,1.966,0,4.312-.7,4.312-4v-1.993a5.433,5.433,0,0,1-4.536,2.292c-2.826,0-5.675-1.977-5.675-6.4s2.85-6.4,5.675-6.4a5.315,5.315,0,0,1,4.536,2.332V97.379h1.334v12.343C642.16,113.108,640.154,114.957,636.509,114.957Zm-4.9-3.594c.339,1.54,1.929,3,4.9,3,2.305,0,5.054-.8,5.054-4.632V97.987h-.147v3h-.48a7.394,7.394,0,0,1-.032,5.336h.462l.051.3v3.1c0,2.935-1.788,4.611-4.907,4.611-2.954,0-4.373-1.481-4.752-2.935Zm4.68-13.557c-2.343,0-5.07,1.518-5.07,5.8s2.738,5.8,5.07,5.8a4.781,4.781,0,0,0,4.309-2.484,4.781,4.781,0,0,1-4.133,2.436c-3.1,0-5.107-2.257-5.107-5.75s2-5.75,5.107-5.75a4.747,4.747,0,0,1,3.808,1.934,4.747,4.747,0,0,0-3.981-1.972Zm.173.643c-2.18,0-4.509,1.353-4.509,5.155s2.329,5.152,4.509,5.152,4.36-1.769,4.36-5.152-2.191-5.144-4.357-5.144Z" transform="translate(-462.356 -71.568)"/><path class="b" d="M694.949,107.476h.744a4.964,4.964,0,0,1-5.179,4.09c-3.543,0-5.774-2.628-5.774-6.593,0-4.138,2.329-6.593,5.75-6.593,3.693,0,5.379,2.751,5.379,6.468H685.484V105c0,3.247,1.686,5.923,5.032,5.923A4.305,4.305,0,0,0,694.949,107.476Zm-9.467-3.271h9.64c0-2.553-1.438-5.179-4.635-5.179-3.143,0-4.928,2.476-5,5.179Z" transform="translate(-502.035 -72.431)"/><path class="b" d="M689.7,111.041c-3.69,0-6.073-2.706-6.073-6.892S686,97.26,689.679,97.26c3.554,0,5.675,2.529,5.675,6.767v.3H684.972c.045,2.559,1.3,5.475,4.731,5.475a4.033,4.033,0,0,0,4.146-3.2l.051-.235h1.361l-.085.366A5.278,5.278,0,0,1,689.7,111.041Zm-.024-13.184c-3.362,0-5.451,2.4-5.451,6.294,0,3.824,2.151,6.294,5.475,6.294a4.63,4.63,0,0,0,4.8-3.493h-.123a4.572,4.572,0,0,1-4.672,3.445c-3.237,0-5.336-2.441-5.336-6.222v-.448h10.379c-.085-3.736-1.932-5.87-5.07-5.87Zm4.934,5.825H684.366v-.307c.072-2.634,1.764-5.47,5.3-5.47,3.389,0,4.934,2.839,4.934,5.478Zm-9.624-.6h9.021c-.107-2.329-1.457-4.584-4.331-4.584a4.654,4.654,0,0,0-4.693,4.584Z" transform="translate(-501.222 -71.609)"/><path class="a" d="M90.127,96.014,85.85,73.59l39.17-6.54.184,1.091L87.149,74.494l4.066,21.314Z" transform="translate(-62.943 -49.46)"/></g></svg>