<svg xmlns="http://www.w3.org/2000/svg" width="45.069" height="60.725" viewBox="0 0 45.069 60.725"><defs><style>.a{fill:#56acab;}</style></defs><path class="a" d="M40.325,23.366V17.79a17.79,17.79,0,1,0-35.581,0v5.575A5.94,5.94,0,0,0,0,29.176v6.733a1.186,1.186,0,0,0,2.372,0V29.176A3.562,3.562,0,0,1,5.93,25.618H39.139A3.562,3.562,0,0,1,42.7,29.176V54.794a3.564,3.564,0,0,1-2.372,3.354V51a1.186,1.186,0,1,0-2.372,0v7.353H5.93a3.562,3.562,0,0,1-3.558-3.558v-9.37a1.186,1.186,0,1,0-2.372,0v9.37a5.937,5.937,0,0,0,5.93,5.93H39.139a5.937,5.937,0,0,0,5.93-5.93V29.176A5.94,5.94,0,0,0,40.325,23.366Zm-26.8-.12V17.79a9.014,9.014,0,1,1,18.028,0v5.456Zm20.4,0V17.79a11.386,11.386,0,0,0-22.772,0v5.456H7.116V17.79a15.418,15.418,0,1,1,30.837,0v5.456Zm0,0"/><path class="a" d="M1.186,334.86A1.186,1.186,0,1,0,0,333.674a1.186,1.186,0,0,0,1.186,1.186Zm0,0" transform="translate(0 -293.054)"/><path class="a" d="M142.518,297.51a3.562,3.562,0,0,0,3.558-3.558v-6.3a6.4,6.4,0,1,0-7.116-.02v6.318A3.562,3.562,0,0,0,142.518,297.51ZM138.5,282.319a4.032,4.032,0,1,1,5.853,3.6,1.186,1.186,0,0,0-.65,1.058v6.978a1.186,1.186,0,1,1-2.372,0v-6.993a1.186,1.186,0,0,0-.643-1.054A4.02,4.02,0,0,1,138.5,282.319Zm0,0" transform="translate(-119.984 -243.19)"/><path class="a" d="M321.186,381.372a1.186,1.186,0,1,0-.839-.347A1.193,1.193,0,0,0,321.186,381.372Zm0,0" transform="translate(-282.047 -334.05)"/></svg>