<svg xmlns="http://www.w3.org/2000/svg" width="239" height="50.569" viewBox="0 0 239 50.569"><defs><style>.a{fill:#fff;}</style></defs><g transform="translate(-25.07 -50.33)"><path class="a" d="M190.493,67.346a4.84,4.84,0,0,1,5.174,4.1l.061.307h3.081l-.05-.424c-.5-4.013-3.907-6.831-8.265-6.831-5.313,0-8.963,4.113-8.963,10.007s3.689,10.046,8.963,10.046a7.885,7.885,0,0,0,8.265-7.4l.045-.419h-3.114v.324a4.767,4.767,0,0,1-5.174,4.632c-4.336,0-5.877-3.879-5.877-7.194S186.157,67.346,190.493,67.346Z" transform="translate(-69.14 -6.262)"/><rect class="a" width="2.83" height="19.31" transform="translate(132.537 58.612)"/><path class="a" d="M234.471,88.8c4.152,0,6.831-2.891,6.831-7.356s-2.668-7.322-6.831-7.322-6.831,2.891-6.831,7.35S230.308,88.8,234.471,88.8Zm0-12.144c2.952,0,4.007,2.467,4.007,4.783s-1.055,4.777-4.007,4.777-4.029-2.467-4.029-4.777,1.066-4.783,4.029-4.783Z" transform="translate(-89.516 -10.513)"/><path class="a" d="M261.552,89.05a5.854,5.854,0,0,0,4.029-1.423v1.055h2.83V74.7h-2.83v8.628c0,1.886-1.412,3.153-3.516,3.153S259.571,85,259.571,83.8V74.69H256.73v9.622C256.73,87.236,258.555,89.05,261.552,89.05Z" transform="translate(-102.371 -10.765)"/><path class="a" d="M288.762,84.843a5.374,5.374,0,0,0,3.8-1.451v1.083h2.863V65.17h-2.83v6.418a5.19,5.19,0,0,0-3.8-1.462c-3.734,0-6.346,3.036-6.346,7.356S285.028,84.843,288.762,84.843Zm.206-2.573c-2.556,0-3.717-2.484-3.717-4.783s1.161-4.783,3.717-4.783c2.232,0,3.611,1.836,3.611,4.783s-1.379,4.783-3.605,4.783Z" transform="translate(-113.737 -6.558)"/><path class="a" d="M331.521,80.472,322.8,66.09H319.36V85.4h3.086V71.063L331.164,85.4h3.449V66.09h-3.092Z" transform="translate(-130.047 -6.965)"/><path class="a" d="M364.817,89.228l.257-.084V86.99l-.424.05a1.217,1.217,0,0,1-.882-.106c-.145-.128-.2-.419-.2-.966V79.534c0-2.936-1.831-4.554-5.157-4.554-4.95,0-5.838,3.036-5.927,4.822v.4h2.79v-.357c.106-1.518.592-2.277,3.092-2.277,2.059,0,2.316.82,2.316,1.518,0,.966-.62,1.222-2.936,1.674-3.265.614-5.966,1.406-5.966,4.811,0,2.478,1.9,4.147,4.738,4.147a5.715,5.715,0,0,0,4.387-1.674,2.372,2.372,0,0,0,2.562,1.429,3.689,3.689,0,0,0,1.351-.246Zm-8.031-2.121c-1.892,0-2.11-.954-2.11-1.674,0-1.25.871-1.858,3.46-2.405a13.278,13.278,0,0,0,2.606-.759v1.518C360.743,86.678,358.265,87.107,356.786,87.107Z" transform="translate(-144.374 -10.893)"/><path class="a" d="M384.4,86.078l.3-.067V83.472h-.407c-1.049.078-1.618,0-1.9-.268a1.323,1.323,0,0,1-.29-.993V74.632h2.6V72.059h-2.584V67.65h-2.841v4.409H377.33v2.573h1.942v7.813c0,2.545,1.116,3.8,3.494,3.8A7.651,7.651,0,0,0,384.4,86.078Z" transform="translate(-155.664 -7.654)"/><rect class="a" width="2.83" height="13.986" transform="translate(232.041 64.444)"/><path class="a" d="M397.2,66.55a1.624,1.624,0,1,0,1.674,1.624A1.674,1.674,0,0,0,397.2,66.55Z" transform="translate(-163.751 -7.168)"/><path class="a" d="M411.253,85.973,407.86,75.62h-3.07L409.8,89.612h2.9l5.017-13.992h-3.075Z" transform="translate(-167.799 -11.176)"/><path class="a" d="M436.317,89.723a6.078,6.078,0,0,0,6.234-4.716l.128-.474h-2.863l-.078.285a3.3,3.3,0,0,1-3.494,2.338,3.8,3.8,0,0,1-3.907-3.856h10.442v-.407c-.017-5.1-2.344-7.892-6.569-7.892s-6.731,2.79-6.731,7.356S432.159,89.723,436.317,89.723Zm-3.979-9.03a3.728,3.728,0,0,1,3.873-3.114,3.5,3.5,0,0,1,3.706,3.137Z" transform="translate(-178.709 -10.902)"/><path class="a" d="M190.889,106.52H184.75v15.459h1.942v-6.468h4.2c2.835,0,5.023-1.25,5.023-4.5S193.724,106.52,190.889,106.52Zm.212,7.255h-4.409v-5.531H191.1c1.931,0,2.857.887,2.857,2.79s-.926,2.79-2.857,2.79Z" transform="translate(-70.563 -24.831)"/><rect class="a" width="1.73" height="15.459" transform="translate(127.464 81.689)"/><path class="a" d="M224.784,122.77v-5.358c0-2.657-1.881-3.483-3.979-3.483-3.2,0-4.554,1.6-4.627,3.723h1.73c.106-1.6.8-2.232,2.9-2.232,1.775,0,2.277.759,2.277,1.6,0,1.116-.843,1.339-2.7,1.674-2.852.558-4.71,1.189-4.71,3.695,0,1.858,1.4,3.137,3.633,3.137a4.241,4.241,0,0,0,3.739-1.674h.05a1.674,1.674,0,0,0,1.864,1.529h.1a2.746,2.746,0,0,0,1.016-.179v-1.189C224.918,124.11,224.784,123.635,224.784,122.77ZM223.054,121c0,2.121-1.557,3.036-3.616,3.036-1.423,0-2.071-.631-2.071-1.708,0-1.317.993-1.858,3.137-2.277a6.591,6.591,0,0,0,2.55-.865Z" transform="translate(-84.226 -28.105)"/><path class="a" d="M239,107.88h-1.73v3.672H235.65v1.518h1.618V119.9c0,2.277,1.116,2.83,2.6,2.83a6.011,6.011,0,0,0,1.3-.128v-1.518c-1.473.106-2.165-.106-2.165-1.356v-6.641h2.165v-1.518H239Z" transform="translate(-93.056 -25.432)"/><path class="a" d="M249.248,109.125v1.736H247.73v1.518h1.518v9.488h1.73v-9.5h2.093V110.85h-2.093v-1.557c0-1.25.631-1.468,2.093-1.356v-1.518a6.033,6.033,0,0,0-1.228-.128C250.37,106.29,249.248,106.876,249.248,109.125Z" transform="translate(-98.394 -24.729)"/><path class="a" d="M264.8,113.93c-3.349,0-5.4,2.378-5.4,5.815s2.031,5.815,5.4,5.815,5.38-2.377,5.38-5.815S268.157,113.93,264.8,113.93Zm0,10.118c-2.489,0-3.672-1.942-3.672-4.3s1.189-4.3,3.672-4.3,3.65,1.942,3.65,4.3S267.269,124.048,264.8,124.048Z" transform="translate(-103.551 -28.105)"/><path class="a" d="M284.409,116.4h-.039v-2.188h-1.73v11.028h1.73v-5.882a3.417,3.417,0,0,1,4.069-3.65h.045v-1.752a6.849,6.849,0,0,0-1.016-.061C285.883,113.912,284.99,114.944,284.409,116.4Z" transform="translate(-113.821 -28.087)"/><path class="a" d="M308.219,113.918a4.3,4.3,0,0,0-3.566,1.9h-.045a2.791,2.791,0,0,0-2.936-1.9,3.8,3.8,0,0,0-3.2,1.624h-.045v-1.317H296.7v11.028h1.73v-6.881a2.735,2.735,0,0,1,2.5-2.93h.307c1.73,0,2.015,1.116,2.015,2.551v7.255h1.73v-6.876a2.729,2.729,0,0,1,2.5-2.93h.307c1.73,0,2.009,1.116,2.009,2.551v7.255h1.73v-7.7C311.529,115.23,310.452,113.918,308.219,113.918Z" transform="translate(-120.034 -28.093)"/><circle class="a" cx="3.265" cy="3.265" r="3.265" transform="translate(30.617 94.369)"/><path class="a" d="M90.529,100.8H41.579c-8.93,0-16.509-7.735-16.509-16.888A16.525,16.525,0,0,1,41.579,67.4h.4a25.24,25.24,0,0,1,47.89.38h.647a16.509,16.509,0,0,1,0,33.017ZM41.579,69.3A14.633,14.633,0,0,0,26.968,83.911c0,8.159,6.7,14.991,14.611,14.991H90.529a14.611,14.611,0,1,0,0-29.222,7.908,7.908,0,0,0-1.256.061l-.759.073-.223-.759a23.334,23.334,0,0,0-44.715-.38l-.223.72-.91-.061a7.517,7.517,0,0,0-.865-.033Z" transform="translate(0 0)"/><path class="a" d="M104.446,112.493a.558.558,0,0,1-.262-.061L71.931,95.661,39.947,112.108a.558.558,0,0,1-.8-.675l8.835-28.748a.558.558,0,0,1,.714-.368l.089.039L71.931,94.4,95.338,82.372a.558.558,0,0,1,.77.251.475.475,0,0,1,.033.095l8.851,29.066a.558.558,0,0,1-.346.726.631.631,0,0,1-.2.033ZM73.192,95.036l30.361,15.772-8.3-27.135ZM48.887,83.65l-8.254,26.822L70.7,95.019Z" transform="translate(-6.204 -14.122)"/><circle class="a" cx="3.008" cy="3.008" r="3.008" transform="translate(39.502 65.806)"/><circle class="a" cx="3.008" cy="3.008" r="3.008" transform="translate(62.351 78.346)"/><circle class="a" cx="3.008" cy="3.008" r="3.008" transform="translate(86.561 65.806)"/><circle class="a" cx="3.265" cy="3.265" r="3.265" transform="translate(95.128 94.369)"/></g></svg>