<svg xmlns="http://www.w3.org/2000/svg" width="63.141" height="63.141" viewBox="0 0 63.141 63.141"><defs><style>.a{fill:#59ada9;}</style></defs><path class="a" d="M40.736,61.1V53.821A3.025,3.025,0,0,1,41,52.581L44.37,45a5.076,5.076,0,0,0,.439-2.07v-2.19H58.049V5.092H50.92V0h-11.2A9.176,9.176,0,0,0,31.57,4.969,9.176,9.176,0,0,0,23.423,0h-11.2V5.092H5.092V40.736H18.331v2a5.109,5.109,0,0,0,.64,2.473l4.068,7.32a3.062,3.062,0,0,1,.384,1.483V61.1H0v2.037H63.141V61.1ZM56.012,7.129V38.7H34.626v1.018a3.059,3.059,0,0,1-3.055,3.055,2.936,2.936,0,0,1-.377-.048,13.2,13.2,0,0,0-3.3-6.063H50.92V7.129ZM14.258,2.037h9.166a7.137,7.137,0,0,1,7.129,7.129v8.147h2.037V9.166a7.137,7.137,0,0,1,7.129-7.129h9.166V34.626H32.589V19.35H30.552V34.626H26.478V29.534a6.116,6.116,0,0,0-6.11-6.11,2.039,2.039,0,0,0-2.037,2.037v9.166H14.258ZM7.129,38.7V7.129h5.092V36.662h6.11V38.7ZM20.752,44.22a3.068,3.068,0,0,1-.384-1.484V25.46a4.078,4.078,0,0,1,4.074,4.074v6.532l1.79,1.79a11.2,11.2,0,0,1,3.3,7.972H31.57c0-.343-.024-.682-.05-1.021.017,0,.033,0,.05,0a5.1,5.1,0,0,0,4.989-4.074h6.213v2.19a3.025,3.025,0,0,1-.264,1.241l-3.371,7.585a5.086,5.086,0,0,0-.35,1.2H25.34a5.106,5.106,0,0,0-.52-1.418ZM25.46,59.067h9.166V57.03H25.46V54.993H38.7V57.03H36.662v2.037H38.7V61.1H25.46Zm0,0"/><path class="a" d="M312,208h1.117v1.117H312Zm0,0" transform="translate(-271.685 -181.123)"/><path class="a" d="M344,208h1.117v1.117H344Zm0,0" transform="translate(-299.55 -181.123)"/><path class="a" d="M280,208h1.117v1.117H280Zm0,0" transform="translate(-243.82 -181.123)"/><path class="a" d="M272,240h6.7v1.117H272Zm0,0" transform="translate(-233.621 -208.988)"/><path class="a" d="M272,176h6.7v1.117H272Zm0,0" transform="translate(-233.621 -153.258)"/><path class="a" d="M272,120h6.7v1.117H272Zm0,0" transform="translate(-233.621 -104.494)"/><path class="a" d="M272,88h6.7v1.117H272Zm0,0" transform="translate(-233.621 -76.755)"/><path class="a" d="M272,56h6.7v1.117H272Zm0,0" transform="translate(-233.621 -52.091)"/><path class="a" d="M168,88h1.117v1.117H168Zm0,0" transform="translate(-146.292 -76.755)"/><path class="a" d="M200,88h1.117v1.117H200Zm0,0" transform="translate(-174.157 -76.755)"/><path class="a" d="M136,88h1.117v1.117H136Zm0,0" transform="translate(-118.427 -76.755)"/><path class="a" d="M128,56h6.7v1.117H128Zm0,0" transform="translate(-109.939 -52.091)"/><path class="a" d="M128,120h6.7v1.117H128Zm0,0" transform="translate(-109.939 -104.494)"/><path class="a" d="M128,152h6.7v1.117H128Zm0,0" transform="translate(-109.939 -132.359)"/></svg>