<svg xmlns="http://www.w3.org/2000/svg" width="241.937" height="70.503" viewBox="0 0 241.937 70.503"><defs><style>.a{fill:#5385ea;}.b{fill:#63c6c1;}.c{fill:none;stroke:#5385ea;stroke-miterlimit:10;stroke-width:4px;}.d{fill:#74daae;}</style></defs><g transform="translate(0 0)"><path class="a" d="M64.7,69.7" transform="translate(-47.263 -51.586)"/><path class="b" d="M186.7,76.183,148.3,51.55V10.1h1.132V50.93l37.893,24.31Z" transform="translate(-108.332 -8.049)"/><path class="c" d="M183.4,245" transform="translate(-133.972 -179.641)"/><path class="b" d="M81.414,72.562H5.3A1.116,1.116,0,0,1,4.2,71.43a1.061,1.061,0,0,1,.162-.566l38.27-65.6A1.1,1.1,0,0,1,43.6,4.7a1.132,1.132,0,0,1,.97.566l37.812,65.6a1.137,1.137,0,0,1-.4,1.536,1.96,1.96,0,0,1-.566.162ZM7.245,70.325H79.474L43.6,8.069Z" transform="translate(-3.068 -4.104)"/><ellipse class="b" cx="3.5" cy="3" rx="3.5" ry="3" transform="translate(36.937 0)"/><circle class="b" cx="3.234" cy="3.234" r="3.234" transform="translate(0 63.822)"/><circle class="b" cx="3.234" cy="3.234" r="3.234" transform="translate(74.771 64.049) rotate(-3.84)"/><path class="d" d="M338,56.6h1.186l7.088,16.817h.054L353.443,56.6h1.186V74.5h-.809V57.786h-.054L346.732,74.5h-.862l-7.007-16.709h-.054V74.5H338Z" transform="translate(-246.906 -42.017)"/><path class="d" d="M354.168,73.915h-1.4V58.257L346.19,73.915h-1.24L338.4,58.284V73.915H337V55.4h1.671l6.9,16.413L352.5,55.4h1.671Zm-.809-.593h.189V56.02H352.9l-7.115,16.817h-.4l-.135-.189L338.24,56.02h-.674v17.3h.189V56.613h.512l.135.189,6.926,16.548h.458L352.82,56.64h.512l.054.3Z" transform="translate(-246.176 -41.14)"/><path class="d" d="M415.3,59.988a.587.587,0,0,1,.62-.593h0a.582.582,0,0,1,.62.566v.027a.587.587,0,0,1-.62.593h0A.641.641,0,0,1,415.3,59.988Zm1,3.665V76.536h-.755V63.653Z" transform="translate(-303.373 -44.057)"/><path class="d" d="M415.79,75.957h-1.348V62.482h1.348Zm-.728-.593h.135V63.1h-.135ZM415.116,60a.9.9,0,1,1,0-1.806h.027a.881.881,0,0,1,.916.862v.027A.931.931,0,0,1,415.116,60Zm0-1.186a.324.324,0,0,0-.323.3.345.345,0,0,0,.323.3.324.324,0,0,0,.323-.3A.3.3,0,0,0,415.116,58.816Z" transform="translate(-302.57 -43.182)"/><path class="d" d="M437.956,75.247c-3.369,0-5.2,2.857-5.2,6.01s1.833,6.01,5.2,6.01A4.257,4.257,0,0,0,442.4,83.44h.755a4.975,4.975,0,0,1-5.2,4.474c-3.531,0-5.956-2.641-5.956-6.657s2.426-6.657,5.956-6.657a5.006,5.006,0,0,1,5.2,4.366H442.4A4.3,4.3,0,0,0,437.956,75.247Z" transform="translate(-315.573 -55.166)"/><path class="d" d="M437.153,87.407c-3.746,0-6.253-2.8-6.253-6.953s2.506-6.953,6.253-6.953a5.3,5.3,0,0,1,5.5,4.636l.027.323H441.3l-.027-.27a4.026,4.026,0,0,0-4.15-3.45c-3.369,0-4.905,2.965-4.905,5.714s1.536,5.714,4.905,5.714a3.983,3.983,0,0,0,4.15-3.558l.027-.27h1.348l-.027.323A5.253,5.253,0,0,1,437.153,87.407Zm0-13.314c-3.369,0-5.66,2.56-5.66,6.36s2.264,6.36,5.66,6.36a4.764,4.764,0,0,0,4.878-3.881H441.9a4.615,4.615,0,0,1-4.716,3.827c-3.773,0-5.5-3.261-5.5-6.306s1.725-6.306,5.5-6.306a4.651,4.651,0,0,1,4.716,3.719h.135a4.749,4.749,0,0,0-4.878-3.773Z" transform="translate(-314.769 -54.362)"/><path class="d" d="M490.406,74.608v.647h-.054a4.217,4.217,0,0,0-4.8,4.339v7.977H484.8V74.689h.755v2.749h.054a4.186,4.186,0,0,1,3.881-2.938C489.786,74.527,490.109,74.554,490.406,74.608Z" transform="translate(-354.143 -55.093)"/><path class="d" d="M485.048,87.137H483.7V73.662h1.348v1.86a4.422,4.422,0,0,1,3.638-2.021,6.22,6.22,0,0,1,1,.081l.243.054v1.186h-.4a3.873,3.873,0,0,0-3.072.889,4.021,4.021,0,0,0-1.4,3.153Zm-.755-.593h.135V78.863a5.36,5.36,0,0,1,.323-1.833h-.3l-.054-.3V74.282h-.135V86.544Zm4.366-12.451a3.671,3.671,0,0,0-2.668,1.186l.054-.027a4.35,4.35,0,0,1,3.261-1.051v-.054a2.625,2.625,0,0,0-.647-.054Z" transform="translate(-353.339 -54.362)"/><path class="d" d="M511.5,81.257c0-3.989,2.237-6.657,5.875-6.657s5.875,2.668,5.875,6.657-2.237,6.657-5.875,6.657S511.5,85.246,511.5,81.257Zm11,0c0-3.477-1.86-6.01-5.121-6.01s-5.121,2.533-5.121,6.01,1.86,6.01,5.121,6.01S522.5,84.733,522.5,81.257Z" transform="translate(-373.647 -55.166)"/><path class="d" d="M516.5,87.407c-3.746,0-6.2-2.722-6.2-6.953s2.426-6.953,6.2-6.953,6.2,2.722,6.2,6.953S520.245,87.407,516.5,87.407Zm0-13.314c-3.45,0-5.579,2.426-5.579,6.36s2.129,6.36,5.579,6.36,5.579-2.426,5.579-6.36-2.156-6.36-5.579-6.36Zm0,12.667c-3.288,0-5.444-2.479-5.444-6.306s2.129-6.306,5.444-6.306,5.444,2.479,5.444,6.306-2.156,6.306-5.444,6.306Zm0-12.02c-2.991,0-4.824,2.183-4.824,5.714s1.86,5.714,4.824,5.714,4.824-2.183,4.824-5.714S519.463,74.74,516.5,74.74Z" transform="translate(-372.77 -54.362)"/><path class="d" d="M574.126,84.2c0,2.156-1.806,3.638-4.555,3.638-3.665,0-5.363-1.86-5.471-4.285h.755c.135,2.1,1.725,3.638,4.716,3.638,2.075,0,3.8-1.24,3.8-2.857,0-2.426-2.075-2.668-4.393-3.315-2.614-.7-4.42-1.159-4.42-3.315,0-1.913,1.671-3.207,4.42-3.207,3.153,0,4.42,1.833,4.716,3.611h-.755a3.641,3.641,0,0,0-3.962-2.965c-1.806,0-3.692.755-3.692,2.56,0,1.725,1.94,2.129,4.312,2.722C572.347,81.157,574.126,81.75,574.126,84.2Z" transform="translate(-412.071 -55.093)"/><path class="d" d="M568.621,87.407c-3.477,0-5.633-1.7-5.794-4.555l-.027-.323h1.348l.027.3c.135,2.1,1.779,3.342,4.42,3.342,1.967,0,3.5-1.132,3.5-2.56,0-1.94-1.455-2.318-3.477-2.83l-.728-.189-.135-.027c-2.506-.674-4.5-1.213-4.5-3.558,0-2.129,1.86-3.5,4.743-3.5,2.749,0,4.636,1.455,5.013,3.854l.054.35h-1.348l-.054-.243c-.162-.809-.809-2.722-3.665-2.722-1.563,0-3.369.593-3.369,2.264,0,1.348,1.348,1.752,3.719,2.345l.35.081c2.884.728,4.77,1.4,4.77,4.043C573.473,85.843,571.532,87.407,568.621,87.407Zm-5.174-4.285c.269,2.345,2.129,3.665,5.148,3.665,2.533,0,4.258-1.348,4.258-3.342,0-2.129-1.375-2.722-4.312-3.477l-.35-.081c-2.237-.566-4.177-1.051-4.177-2.938,0-1.967,1.994-2.857,3.989-2.857a3.935,3.935,0,0,1,4.2,2.965h.135c-.27-1.1-1.186-2.992-4.339-2.992-2.56,0-4.123,1.1-4.123,2.911s1.321,2.237,4.07,2.965l.135.027.7.189c2.021.512,3.908,1,3.908,3.423,0,1.779-1.806,3.153-4.1,3.153-2.83,0-4.743-1.374-5.013-3.638h-.135Z" transform="translate(-411.121 -54.362)"/><path class="d" d="M620.8,83.79h.755a5.02,5.02,0,0,1-5.229,4.123c-3.584,0-5.821-2.668-5.821-6.657,0-4.177,2.345-6.657,5.794-6.657,3.719,0,5.444,2.776,5.444,6.522H611.255v.162c0,3.288,1.7,5.983,5.094,5.983A4.324,4.324,0,0,0,620.8,83.79Zm-9.541-3.315h9.729c0-2.587-1.455-5.228-4.689-5.228A5.021,5.021,0,0,0,611.255,80.475Z" transform="translate(-445.965 -55.166)"/><path class="d" d="M615.445,87.407c-3.719,0-6.145-2.722-6.145-6.953s2.4-6.953,6.118-6.953c3.584,0,5.74,2.56,5.74,6.845v.3H610.674c.054,2.587,1.321,5.525,4.77,5.525a4.045,4.045,0,0,0,4.177-3.234l.054-.243h1.375l-.081.377A5.325,5.325,0,0,1,615.445,87.407Zm-.027-13.314c-3.4,0-5.5,2.426-5.5,6.36,0,3.854,2.183,6.36,5.525,6.36a4.7,4.7,0,0,0,4.851-3.531h-.135a4.6,4.6,0,0,1-4.716,3.477c-3.261,0-5.39-2.453-5.39-6.28v-.458h10.484C620.458,76.249,618.6,74.093,615.418,74.093Zm4.986,5.875H610.055v-.3c.081-2.668,1.779-5.525,5.363-5.525,3.423,0,4.986,2.857,4.986,5.525Zm-9.729-.593h9.109c-.108-2.345-1.482-4.636-4.366-4.636a4.726,4.726,0,0,0-4.743,4.636Z" transform="translate(-445.089 -54.362)"/><path class="d" d="M669.606,74.608v.647h-.054a4.217,4.217,0,0,0-4.8,4.339v7.977H664V74.689h.755v2.749h.054a4.186,4.186,0,0,1,3.881-2.938C668.986,74.527,669.309,74.554,669.606,74.608Z" transform="translate(-485.047 -55.093)"/><path class="d" d="M664.248,87.137H662.9V73.662h1.348v1.86a4.422,4.422,0,0,1,3.638-2.021,6.221,6.221,0,0,1,1,.081l.243.054v1.186h-.4a3.872,3.872,0,0,0-3.072.889,4.022,4.022,0,0,0-1.4,3.153Zm-.755-.593h.135V78.863a5.361,5.361,0,0,1,.323-1.833h-.3l-.054-.3V74.282h-.135V86.544Zm4.366-12.451a3.671,3.671,0,0,0-2.668,1.186l.054-.027a4.35,4.35,0,0,1,3.261-1.051v-.054a2.624,2.624,0,0,0-.647-.054Z" transform="translate(-484.243 -54.362)"/><path class="d" d="M693.182,75.2l4.5,11.858h.027L702.237,75.2h.782l-4.905,12.882h-.835L692.4,75.227Z" transform="translate(-505.793 -55.604)"/><path class="d" d="M697.16,87.575h-1.24L690.8,74.1h1.428l4.312,11.346L700.88,74.1h1.428Zm-.836-.593h.4l4.662-12.263h-.135l-4.528,11.858h-.4l-.108-.189L691.77,74.72h-.108Z" transform="translate(-504.624 -54.8)"/><path class="d" d="M741.9,59.988a.587.587,0,0,1,.62-.593h0a.582.582,0,0,1,.62.566v.027a.587.587,0,0,1-.62.593h0A.641.641,0,0,1,741.9,59.988Zm1,3.665V76.536h-.755V63.653Z" transform="translate(-541.952 -44.057)"/><path class="d" d="M742.49,75.957h-1.347V62.482h1.347Zm-.755-.593h.135V63.1h-.135ZM741.816,60a.9.9,0,1,1,0-1.806h.027a.881.881,0,0,1,.916.862v.027a.93.93,0,0,1-.943.916Zm0-1.186a.324.324,0,0,0-.323.3.345.345,0,0,0,.323.3.3.3,0,1,0,0-.593Z" transform="translate(-541.221 -43.182)"/><path class="d" d="M764.656,75.247c-3.369,0-5.2,2.857-5.2,6.01s1.833,6.01,5.2,6.01A4.258,4.258,0,0,0,769.1,83.44h.755a4.993,4.993,0,0,1-5.2,4.474c-3.531,0-5.956-2.668-5.956-6.657s2.426-6.657,5.956-6.657a5.006,5.006,0,0,1,5.2,4.393H769.1A4.339,4.339,0,0,0,764.656,75.247Z" transform="translate(-554.224 -55.166)"/><path class="d" d="M763.853,87.407c-3.746,0-6.253-2.8-6.253-6.953s2.506-6.953,6.253-6.953a5.3,5.3,0,0,1,5.5,4.636l.054.323H768.03l-.027-.27a4.005,4.005,0,0,0-4.15-3.45c-3.369,0-4.905,2.965-4.905,5.714s1.536,5.714,4.905,5.714A3.983,3.983,0,0,0,768,82.609l.027-.27h1.348l-.027.323A5.3,5.3,0,0,1,763.853,87.407Zm0-13.314c-3.369,0-5.66,2.56-5.66,6.36s2.264,6.36,5.66,6.36a4.764,4.764,0,0,0,4.878-3.881H768.6a4.615,4.615,0,0,1-4.716,3.827c-3.773,0-5.5-3.261-5.5-6.306s1.725-6.306,5.5-6.306a4.651,4.651,0,0,1,4.716,3.719h.135a4.792,4.792,0,0,0-4.878-3.773Z" transform="translate(-553.421 -54.362)"/><path class="d" d="M819.3,83.79h.755a5.02,5.02,0,0,1-5.228,4.123c-3.584,0-5.821-2.668-5.821-6.657,0-4.177,2.345-6.657,5.794-6.657,3.719,0,5.444,2.776,5.444,6.522H809.728v.162c0,3.288,1.7,5.983,5.094,5.983A4.38,4.38,0,0,0,819.3,83.79Zm-9.567-3.315h9.729c0-2.587-1.455-5.228-4.69-5.228-3.153,0-4.959,2.506-5.04,5.228Z" transform="translate(-590.968 -55.166)"/><path class="d" d="M813.845,87.407c-3.719,0-6.145-2.722-6.145-6.953s2.4-6.953,6.118-6.953c3.584,0,5.741,2.56,5.741,6.845v.3H809.074c.054,2.587,1.321,5.525,4.77,5.525a4.045,4.045,0,0,0,4.177-3.234l.054-.243h1.375l-.081.377A5.307,5.307,0,0,1,813.845,87.407Zm-.027-13.314c-3.4,0-5.5,2.426-5.5,6.36,0,3.854,2.183,6.36,5.525,6.36a4.7,4.7,0,0,0,4.851-3.531h-.135a4.6,4.6,0,0,1-4.716,3.477c-3.261,0-5.39-2.453-5.39-6.28v-.458h10.484c-.081-3.773-1.94-5.929-5.121-5.929Zm4.986,5.875H808.455v-.3c.081-2.668,1.779-5.525,5.363-5.525,3.423,0,4.986,2.857,4.986,5.525Zm-9.7-.593h9.109c-.108-2.345-1.482-4.636-4.366-4.636a4.69,4.69,0,0,0-4.743,4.636Z" transform="translate(-590.018 -54.362)"/><path class="d" d="M869.426,84.2c0,2.156-1.806,3.638-4.555,3.638-3.665,0-5.363-1.86-5.471-4.285h.755c.135,2.1,1.725,3.638,4.716,3.638,2.075,0,3.8-1.24,3.8-2.857,0-2.426-2.075-2.668-4.393-3.315-2.614-.7-4.42-1.159-4.42-3.315,0-1.913,1.671-3.207,4.42-3.207,3.153,0,4.42,1.833,4.716,3.611h-.755a3.641,3.641,0,0,0-3.962-2.965c-1.806,0-3.692.755-3.692,2.56,0,1.725,1.94,2.129,4.312,2.722C867.647,81.157,869.426,81.75,869.426,84.2Z" transform="translate(-627.785 -55.093)"/><path class="d" d="M863.921,87.407c-3.477,0-5.633-1.7-5.794-4.555l-.027-.323h1.348l.027.3c.135,2.1,1.779,3.342,4.42,3.342,1.967,0,3.5-1.132,3.5-2.56,0-1.94-1.455-2.318-3.477-2.83l-.728-.189-.135-.027c-2.506-.674-4.5-1.213-4.5-3.558,0-2.129,1.86-3.5,4.743-3.5,2.749,0,4.636,1.455,5.013,3.854l.054.35h-1.348l-.054-.243c-.162-.809-.809-2.722-3.665-2.722-1.563,0-3.369.593-3.369,2.264,0,1.348,1.348,1.752,3.719,2.345l.35.081c2.884.728,4.77,1.4,4.77,4.043C868.773,85.843,866.832,87.407,863.921,87.407Zm-5.174-4.285c.269,2.345,2.129,3.665,5.148,3.665,2.533,0,4.258-1.348,4.258-3.342,0-2.129-1.375-2.722-4.312-3.477l-.35-.081c-2.237-.566-4.177-1.051-4.177-2.938,0-1.967,1.994-2.857,3.989-2.857a3.936,3.936,0,0,1,4.2,2.965h.135c-.27-1.1-1.186-2.992-4.339-2.992-2.56,0-4.123,1.1-4.123,2.911s1.321,2.237,4.07,2.965l.135.027.7.189c2.021.512,3.908,1,3.908,3.423,0,1.779-1.806,3.153-4.1,3.153-2.83,0-4.743-1.374-5.013-3.638h-.135Z" transform="translate(-626.835 -54.362)"/><path class="d" d="M347.455,162.265l-1.94-2.56a6.309,6.309,0,0,1-5.255,2.83A4.661,4.661,0,0,1,335.3,157.6c0-2.911,2.318-4.582,4.258-5.687-1.267-1.59-2.291-2.857-2.291-4.447a3.313,3.313,0,0,1,3.611-3.369,3.429,3.429,0,0,1,3.611,3.369c0,2.021-1.348,3.342-3.773,4.743l4.743,6.145a9.886,9.886,0,0,0,1.051-3.8h.809A10.308,10.308,0,0,1,345.973,159l2.506,3.261Zm-2.426-3.18-4.8-6.28a1.266,1.266,0,0,1-.162-.243c-1.86,1.024-3.962,2.372-3.962,5.067a3.9,3.9,0,0,0,4.15,4.231,5.7,5.7,0,0,0,4.77-2.776Zm-4.851-7.492c0-.027.027-.027,0,0,1.617-.889,3.477-1.914,3.477-4.1a2.642,2.642,0,0,0-2.8-2.668,2.55,2.55,0,0,0-2.8,2.668c0,1.455,1.051,2.722,2.129,4.1Z" transform="translate(-244.934 -105.935)"/><path class="d" d="M339.355,162.054a4.958,4.958,0,0,1-5.255-5.228c0-2.884,2.129-4.609,4.1-5.767-1.132-1.4-2.129-2.722-2.129-4.366A3.632,3.632,0,0,1,339.975,143a3.713,3.713,0,0,1,3.908,3.692c0,2.318-1.7,3.692-3.638,4.824l4.258,5.5a9.668,9.668,0,0,0,.809-3.261l.027-.3h1.4l-.027.323a10.736,10.736,0,0,1-1.294,4.42l2.749,3.584h-1.752l-1.806-2.345A6.536,6.536,0,0,1,339.355,162.054Zm.62-18.461a3.022,3.022,0,0,0-3.315,3.072c0,1.536,1.024,2.8,2.21,4.258l.216.27-.3.162c-1.913,1.1-4.1,2.7-4.1,5.417a4.365,4.365,0,0,0,4.662,4.636,6.043,6.043,0,0,0,5.013-2.7l.243-.323,2.1,2.749h.243l-2.264-2.938.108-.162a10.057,10.057,0,0,0,1.294-4.016H345.9a10.67,10.67,0,0,1-1.051,3.638l-.216.431-5.013-6.468v.027l-.728-.916c-1.024-1.321-2.021-2.56-2.021-4.07a2.858,2.858,0,0,1,3.1-2.992,2.942,2.942,0,0,1,3.1,2.992c0,2.318-1.887,3.4-3.477,4.285v.216l.054-.027c2.614-1.482,3.638-2.722,3.638-4.474a3.129,3.129,0,0,0-3.315-3.072Zm0,.7a2.263,2.263,0,0,0-2.506,2.372c0,1.294.916,2.453,1.887,3.692l.027.027c1.482-.809,3.1-1.779,3.1-3.719a2.357,2.357,0,0,0-2.506-2.372Zm-.62,17.06a4.209,4.209,0,0,1-4.447-4.528c0-2.8,2.129-4.2,4.1-5.309l.27-.162.135.27a.373.373,0,0,0,.081.108.372.372,0,0,1,.081.108l4.932,6.441-.135.189a5.977,5.977,0,0,1-5.013,2.884Zm-.3-9.19c-1.752,1-3.558,2.291-3.558,4.662a3.617,3.617,0,0,0,3.854,3.935,5.383,5.383,0,0,0,4.42-2.453Z" transform="translate(-244.057 -105.131)"/><path class="d" d="M429.833,157.6c0,2.722-2.183,4.959-6.01,4.959-3.935,0-6.98-1.94-7.223-6.037h.809c.216,3.45,2.668,5.336,6.414,5.336,3.477,0,5.175-1.967,5.2-4.258.027-3.045-2.129-3.854-6.253-4.555-3.423-.566-5.444-1.7-5.444-4.636,0-2.83,2.453-4.312,5.714-4.312,3.531,0,5.9,1.833,6.145,5.094h-.809c-.243-2.668-1.94-4.393-5.336-4.393-2.938,0-4.905,1.374-4.905,3.611,0,2.83,2.129,3.45,5.525,4.043C427.758,153.182,429.833,154.4,429.833,157.6Z" transform="translate(-304.323 -105.935)"/><path class="d" d="M422.946,161.981c-4.474,0-7.3-2.372-7.519-6.306l-.027-.323h1.4l.027.27c.216,3.207,2.426,5.04,6.118,5.04,2.965,0,4.878-1.563,4.905-3.962.027-2.776-1.833-3.558-6.01-4.258-2.83-.485-5.714-1.428-5.714-4.932,0-2.8,2.372-4.609,6.01-4.609,3.8,0,6.2,1.994,6.441,5.363l.027.323h-1.4l-.027-.27c-.243-2.7-1.994-4.1-5.04-4.1-2.8,0-4.609,1.294-4.609,3.315,0,2.426,1.563,3.1,5.282,3.746,3.962.7,6.441,1.86,6.441,5.417C429.28,159.8,426.665,161.981,422.946,161.981Zm-6.872-6.037c.323,3.4,2.884,5.417,6.872,5.417,3.423,0,5.714-1.86,5.714-4.662s-1.563-4.07-5.929-4.824c-3.4-.593-5.794-1.267-5.794-4.339,0-2.372,2.048-3.908,5.2-3.908,3.234,0,5.228,1.563,5.606,4.393h.189c-.323-2.8-2.48-4.474-5.794-4.474-2.614,0-5.417,1.051-5.417,4.016,0,2.479,1.455,3.719,5.2,4.339,3.827.647,6.549,1.374,6.5,4.851-.027,2.1-1.482,4.555-5.5,4.555-3.854,0-6.333-1.994-6.684-5.336Z" transform="translate(-303.446 -105.058)"/><path class="d" d="M486.4,172.29h.755a5.02,5.02,0,0,1-5.228,4.123c-3.584,0-5.821-2.668-5.821-6.657,0-4.177,2.345-6.657,5.794-6.657,3.719,0,5.444,2.776,5.444,6.522H476.855v.162c0,3.288,1.7,5.983,5.094,5.983A4.324,4.324,0,0,0,486.4,172.29ZM476.828,169h9.756c0-2.587-1.455-5.228-4.689-5.228C478.714,163.774,476.909,166.253,476.828,169Z" transform="translate(-347.787 -119.814)"/><path class="d" d="M481.045,176.007c-3.719,0-6.145-2.722-6.145-6.953s2.4-6.953,6.118-6.953c3.585,0,5.741,2.56,5.741,6.846v.3H476.275c.054,2.587,1.321,5.525,4.77,5.525a4.045,4.045,0,0,0,4.177-3.234l.054-.243h1.375l-.081.377A5.326,5.326,0,0,1,481.045,176.007Zm-.027-13.314c-3.4,0-5.5,2.426-5.5,6.36,0,3.854,2.183,6.36,5.525,6.36a4.7,4.7,0,0,0,4.851-3.531h-.135a4.6,4.6,0,0,1-4.716,3.477c-3.261,0-5.39-2.453-5.39-6.28v-.458h10.484c-.081-3.8-1.94-5.956-5.121-5.929ZM486,168.568H475.655v-.3c.081-2.668,1.779-5.525,5.363-5.525,3.423,0,4.986,2.857,4.986,5.525Zm-9.729-.62h9.109c-.108-2.345-1.482-4.636-4.366-4.636A4.743,4.743,0,0,0,476.275,167.948Z" transform="translate(-346.911 -119.084)"/><path class="d" d="M535.206,163.181v.647h-.054a4.217,4.217,0,0,0-4.8,4.339v7.977H529.6V163.262h.755v2.776h.054a4.186,4.186,0,0,1,3.881-2.938A5.5,5.5,0,0,1,535.206,163.181Z" transform="translate(-386.869 -119.814)"/><path class="d" d="M529.848,175.637H528.5V162.162h1.348v1.86A4.422,4.422,0,0,1,533.486,162a6.217,6.217,0,0,1,1,.081l.243.054v1.186h-.431a3.873,3.873,0,0,0-3.072.889,4.021,4.021,0,0,0-1.4,3.153Zm-.755-.593h.135v-7.681a5.36,5.36,0,0,1,.323-1.833h-.3l-.054-.3v-2.453h-.135v12.263Zm4.366-12.451a3.672,3.672,0,0,0-2.668,1.186l.054-.027a4.35,4.35,0,0,1,3.261-1.051v-.054a5.232,5.232,0,0,0-.647-.054Z" transform="translate(-386.065 -119.011)"/><path class="d" d="M558.782,163.8l4.5,11.858h.027l4.528-11.858h.782l-4.905,12.856h-.836L558,163.8Z" transform="translate(-407.615 -120.326)"/><path class="d" d="M562.66,176.075h-1.24L556.3,162.6h1.428l4.312,11.346L566.38,162.6h1.428Zm-.809-.593h.4l4.663-12.263h-.135l-4.528,11.858h-.4l-.108-.189L557.3,163.22h-.135Z" transform="translate(-406.373 -119.449)"/><path class="d" d="M613.9,172.29h.755a5.02,5.02,0,0,1-5.228,4.123c-3.584,0-5.821-2.668-5.821-6.657,0-4.177,2.345-6.657,5.794-6.657,3.719,0,5.444,2.776,5.444,6.522H604.355v.162c0,3.288,1.7,5.983,5.094,5.983A4.347,4.347,0,0,0,613.9,172.29ZM604.328,169h9.729c0-2.587-1.455-5.228-4.689-5.228C606.214,163.774,604.409,166.253,604.328,169Z" transform="translate(-440.925 -119.814)"/><path class="d" d="M608.545,176.007c-3.719,0-6.145-2.722-6.145-6.953s2.4-6.953,6.118-6.953c3.584,0,5.74,2.56,5.74,6.846v.3H603.774c.054,2.587,1.321,5.525,4.77,5.525a4.045,4.045,0,0,0,4.177-3.234l.054-.243h1.374l-.081.377A5.345,5.345,0,0,1,608.545,176.007Zm-.027-13.314c-3.4,0-5.5,2.426-5.5,6.36,0,3.854,2.183,6.36,5.525,6.36a4.7,4.7,0,0,0,4.851-3.531h-.135a4.6,4.6,0,0,1-4.716,3.477c-3.261,0-5.39-2.453-5.39-6.28v-.458h10.484c-.108-3.8-1.967-5.956-5.121-5.929Zm4.959,5.875H603.128v-.3c.081-2.668,1.779-5.525,5.363-5.525,3.423,0,4.986,2.857,4.986,5.525Zm-9.7-.593h9.109c-.108-2.345-1.482-4.636-4.366-4.636a4.708,4.708,0,0,0-4.743,4.636Z" transform="translate(-440.048 -119.084)"/><path class="d" d="M658.055,145.1V163H657.3V145.1Z" transform="translate(-480.152 -106.665)"/><path class="d" d="M657.548,162.488H656.2V144h1.348Zm-.755-.593h.162v-17.3h-.135Z" transform="translate(-479.349 -105.862)"/><path class="d" d="M682.7,172.29h.755a5.02,5.02,0,0,1-5.228,4.123c-3.585,0-5.821-2.668-5.821-6.657,0-4.177,2.345-6.657,5.794-6.657,3.719,0,5.444,2.776,5.444,6.522H673.155v.162c0,3.288,1.7,5.983,5.094,5.983A4.347,4.347,0,0,0,682.7,172.29ZM673.128,169h9.729c0-2.587-1.455-5.228-4.69-5.228C675.014,163.774,673.208,166.253,673.128,169Z" transform="translate(-491.183 -119.814)"/><path class="d" d="M677.345,176.007c-3.719,0-6.145-2.722-6.145-6.953s2.4-6.953,6.118-6.953c3.585,0,5.741,2.56,5.741,6.846v.3H672.575c.054,2.587,1.32,5.525,4.77,5.525a4.045,4.045,0,0,0,4.177-3.234l.054-.243h1.374l-.081.377A5.326,5.326,0,0,1,677.345,176.007Zm-.027-13.314c-3.4,0-5.5,2.426-5.5,6.36,0,3.854,2.183,6.36,5.525,6.36a4.7,4.7,0,0,0,4.851-3.531h-.135a4.6,4.6,0,0,1-4.716,3.477c-3.261,0-5.39-2.453-5.39-6.28v-.458h10.484c-.081-3.8-1.94-5.956-5.121-5.929Zm4.986,5.875H671.955v-.3c.081-2.668,1.779-5.525,5.363-5.525,3.423,0,4.986,2.857,4.986,5.525Zm-9.729-.593h9.109c-.108-2.345-1.482-4.636-4.366-4.636a4.708,4.708,0,0,0-4.743,4.636Z" transform="translate(-490.306 -119.084)"/><path class="d" d="M732.826,172.8c0,2.156-1.806,3.638-4.555,3.638-3.665,0-5.363-1.86-5.471-4.285h.755c.135,2.1,1.725,3.638,4.743,3.638,2.075,0,3.8-1.213,3.8-2.857,0-2.426-2.075-2.668-4.393-3.315-2.614-.7-4.42-1.159-4.42-3.315,0-1.913,1.671-3.207,4.42-3.207,3.153,0,4.42,1.833,4.716,3.611h-.755a3.641,3.641,0,0,0-3.962-2.965c-1.806,0-3.692.755-3.692,2.56,0,1.725,1.94,2.129,4.312,2.722C731.047,169.757,732.826,170.35,732.826,172.8Z" transform="translate(-528 -119.814)"/><path class="d" d="M727.321,176.007c-3.477,0-5.633-1.7-5.794-4.555l-.027-.323h1.348l.027.3c.135,2.1,1.779,3.342,4.42,3.342,1.967,0,3.5-1.132,3.5-2.56,0-1.94-1.455-2.318-3.477-2.83l-.728-.189-.135-.027c-2.506-.674-4.5-1.213-4.5-3.557,0-2.129,1.86-3.5,4.743-3.5,2.749,0,4.636,1.455,5.013,3.854l.054.35h-1.347l-.054-.243c-.162-.809-.809-2.722-3.665-2.722-1.563,0-3.369.593-3.369,2.264,0,1.348,1.347,1.752,3.719,2.345l.35.081c2.884.728,4.77,1.4,4.77,4.043C732.2,174.417,730.232,176.007,727.321,176.007Zm-5.148-4.285c.27,2.345,2.129,3.665,5.148,3.665,2.533,0,4.258-1.348,4.258-3.342,0-2.129-1.374-2.722-4.312-3.477l-.35-.081c-2.237-.566-4.177-1.051-4.177-2.938,0-1.967,1.994-2.857,3.989-2.857a3.936,3.936,0,0,1,4.2,2.965h.162c-.269-1.1-1.186-2.992-4.339-2.992-2.56,0-4.123,1.1-4.123,2.911s1.32,2.237,4.07,2.965l.135.027.7.189c2.021.512,3.908,1,3.908,3.423,0,1.779-1.806,3.153-4.1,3.153-2.83,0-4.743-1.374-5.013-3.638Z" transform="translate(-527.05 -119.084)"/><path class="d" d="M778.726,172.8c0,2.156-1.806,3.638-4.555,3.638-3.665,0-5.363-1.86-5.471-4.285h.755c.135,2.1,1.725,3.638,4.716,3.638,2.075,0,3.8-1.213,3.8-2.857,0-2.426-2.075-2.668-4.393-3.315-2.614-.7-4.42-1.159-4.42-3.315,0-1.913,1.671-3.207,4.42-3.207,3.153,0,4.42,1.833,4.716,3.611h-.755a3.642,3.642,0,0,0-3.962-2.965c-1.806,0-3.692.755-3.692,2.56,0,1.725,1.94,2.129,4.312,2.722C776.947,169.757,778.726,170.35,778.726,172.8Z" transform="translate(-561.529 -119.814)"/><path class="d" d="M773.221,176.007c-3.477,0-5.633-1.7-5.794-4.555l-.027-.323h1.348l.027.3c.135,2.1,1.779,3.342,4.447,3.342,1.967,0,3.5-1.132,3.5-2.56,0-1.94-1.455-2.318-3.477-2.83l-.728-.189-.135-.027c-2.506-.674-4.5-1.213-4.5-3.557,0-2.129,1.86-3.5,4.743-3.5,2.749,0,4.636,1.455,5.013,3.854l.054.35h-1.348l-.054-.243c-.162-.809-.808-2.722-3.665-2.722-1.563,0-3.369.593-3.369,2.264,0,1.348,1.348,1.752,3.719,2.345l.35.081c2.884.728,4.77,1.4,4.77,4.043C778.073,174.417,776.132,176.007,773.221,176.007Zm-5.148-4.285c.27,2.345,2.129,3.665,5.148,3.665,2.533,0,4.258-1.348,4.258-3.342,0-2.129-1.374-2.722-4.312-3.477l-.35-.081c-2.237-.566-4.15-1.051-4.15-2.938,0-1.967,1.994-2.857,3.989-2.857a3.935,3.935,0,0,1,4.2,2.965h.135c-.269-1.1-1.186-2.992-4.339-2.992-2.56,0-4.123,1.1-4.123,2.911s1.321,2.237,4.07,2.965l.135.027.7.189c2.021.512,3.908,1,3.908,3.423,0,1.779-1.806,3.153-4.1,3.153-2.83,0-4.743-1.374-5.013-3.638Z" transform="translate(-560.58 -119.084)"/><rect class="b" width="45.116" height="1.105" transform="translate(2.182 67.156) rotate(-32.737)"/></g></svg>