<svg xmlns="http://www.w3.org/2000/svg" width="60.142" height="60.969" viewBox="0 0 60.142 60.969"><defs><style>.a{fill:#59ada9;}</style></defs><g transform="translate(-3.469)"><g transform="translate(3.469)"><g transform="translate(0)"><path class="a" d="M58.768,4.844A16.541,16.541,0,0,0,33.129,25.438L4.512,54.055A3.567,3.567,0,1,0,9.557,59.1l3.074-3.074,3.9,3.9a3.567,3.567,0,0,0,5.045-5.045l-2.064-2.064L21.8,50.522l2.064,2.064a3.567,3.567,0,1,0,5.045-5.045l-3.9-3.9L38.173,30.483A16.541,16.541,0,0,0,58.768,4.844ZM57.391,26.858a14.6,14.6,0,0,1-18.774,1.577.973.973,0,0,0-1.253.1L22.95,42.954a.973.973,0,0,0,0,1.376l4.586,4.586a1.622,1.622,0,1,1-2.293,2.293l-2.752-2.752a.973.973,0,0,0-1.376,0l-3.669,3.669a.973.973,0,0,0,0,1.376L20.2,56.255a1.621,1.621,0,1,1-2.293,2.293l-4.586-4.586a.973.973,0,0,0-1.376,0L8.181,57.724a1.622,1.622,0,1,1-2.293-2.293L35.072,26.247a.973.973,0,0,0,.1-1.253,14.594,14.594,0,1,1,22.215,1.864Z" transform="translate(-3.469)"/></g></g><g transform="translate(35.727 5.189)"><g transform="translate(0)"><path class="a" d="M296.118,54.379a.972.972,0,0,0-1.012.932,9.375,9.375,0,1,1-.529-3.528.973.973,0,0,0,1.835-.648A11.352,11.352,0,0,0,277.685,46.9a11.351,11.351,0,1,0,19.366,8.492A.973.973,0,0,0,296.118,54.379Z" transform="translate(-274.366 -43.575)"/></g></g></g></svg>