<svg xmlns="http://www.w3.org/2000/svg" width="154" height="32.397" viewBox="0 0 154 32.397"><defs><style>.a{fill:#e1dcdb;}</style></defs><g transform="translate(-19 -284.44)"><path class="a" d="M19,284.82v22.792c1.776,9.435,10.277,9.528,10.277,9.528H51.134V284.82Zm26.9,16.16H41.046v-5.886H35.067V290.52H45.9Z" transform="translate(0 -0.303)"/><path class="a" d="M238.431,287.13a3.332,3.332,0,0,1,2.71,3.268c.372,1.495-1.4,3.082-1.4,3.082,1.774.467,1.774,2.989,1.774,2.989.188,3.27-3.55,3.831-3.55,3.831H230.48V287.13Zm-5.137,2.334v2.9h3.924s1.369-.311,1.307-1.448c0,0-.123-1.448-1.432-1.448Zm0,5.044v3.363h3.8a2.13,2.13,0,0,0,1.869-1.82,1.588,1.588,0,0,0-1.618-1.541Z" transform="translate(-168.707 -2.146)"/><path class="a" d="M295.987,287.13h2.805L303.96,300.3h-2.866l-1.058-2.708h-5.107l-1.246,2.708h-2.8Zm1.432,3.782-1.863,4.407h3.736Z" transform="translate(-216.891 -2.146)"/><path class="a" d="M720.849,378h2.8l5.17,13.173h-2.87l-1.058-2.7h-5.107l-1.246,2.71h-2.8Zm1.434,3.784-1.869,4.405h3.732Z" transform="translate(-555.822 -74.637)"/><path class="a" d="M447.488,294.336l1.681,1.681a6.217,6.217,0,0,1-5.356,2.427s-6.725.9-7.281-6.585c0,0-.437-6.741,7.281-7.053,0,0,3.363-.125,5.044,2.241l-1.869,1.743a4.082,4.082,0,0,0-3.408-1.462s-3.784-.061-4.065,4.312a4.276,4.276,0,0,0,4.158,4.468A4.405,4.405,0,0,0,447.488,294.336Z" transform="translate(-333.081 -0.291)"/><path class="a" d="M333.238,385.706l1.681,1.681a6.217,6.217,0,0,1-5.356,2.427s-6.725.9-7.281-6.585c0,0-.437-6.741,7.281-7.053,0,0,3.363-.123,5.044,2.243l-1.869,1.745a4.075,4.075,0,0,0-3.408-1.464s-3.784-.061-4.063,4.314a4.274,4.274,0,0,0,4.156,4.468A4.42,4.42,0,0,0,333.238,385.706Z" transform="translate(-241.939 -73.181)"/><path class="a" d="M583.768,385.706l1.681,1.681a6.217,6.217,0,0,1-5.356,2.427s-6.727.9-7.281-6.585c0,0-.435-6.741,7.281-7.053,0,0,3.363-.123,5.044,2.243l-1.869,1.743a4.082,4.082,0,0,0-3.41-1.464s-3.782-.061-4.063,4.314a4.277,4.277,0,0,0,4.158,4.468A4.416,4.416,0,0,0,583.768,385.706Z" transform="translate(-441.798 -73.181)"/><path class="a" d="M513.048,295.837a4.391,4.391,0,1,1,4.391-4.389,4.391,4.391,0,0,1-4.391,4.389Zm7.008-4.389a7.008,7.008,0,1,0-7.008,7.008A7.008,7.008,0,0,0,520.056,291.448Z" transform="translate(-388.534)"/><rect class="a" width="2.569" height="13.424" transform="translate(110.546 303.246)"/><rect class="a" width="2.569" height="13.424" transform="translate(75.049 303.246)"/><path class="a" d="M231.46,390.844V377.42h6.725s3.97.514,3.784,4.484c0,0,.326,3.456-3.691,4.437h-4.2v4.5Zm2.615-10.9v4.067h3.317s1.917-.374,1.915-2.033c0,0,.14-1.94-1.683-2.033Z" transform="translate(-169.489 -74.174)"/><path class="a" d="M397.73,377.42v13.424h2.662v-5.576h5.932v5.576h2.569V377.42h-1.727a.9.9,0,0,0-.841.934v4.2H400.3V377.42Z" transform="translate(-302.13 -74.174)"/><path class="a" d="M649,377.42v13.424h2.664v-5.576h5.93v5.576h2.571V377.42h-1.729a.9.9,0,0,0-.841.934v4.2h-6.029V377.42Z" transform="translate(-502.58 -74.174)"/><path class="a" d="M366.09,300.3V287.13h3.034a1.557,1.557,0,0,1,.934.746l5.044,8.315V287.13h2.569V300.3h-2.7s-.467.047-.888-.653l-5.091-8.361V300.3Z" transform="translate(-276.89 -2.146)"/><path class="a" d="M502.2,391.841V378.67h3.034a1.557,1.557,0,0,1,.934.746l5.044,8.315V378.67h2.569v13.171h-2.706s-.467.047-.888-.653l-5.091-8.361v9.014Z" transform="translate(-385.471 -75.172)"/></g></svg>