<svg xmlns="http://www.w3.org/2000/svg" width="181" height="181" viewBox="0 0 181 181"><defs><style>.a{fill:#6a6a6a;}</style></defs><g transform="translate(0 0)"><g transform="translate(19.09 0)"><path class="a" d="M214.126.464a3.535,3.535,0,0,0-3.551.028L145.792,38.8a3.535,3.535,0,0,0,3.6,6.086L195.872,17.4l-86.578,89.833L66.232,94.059l56.2-33.23a3.535,3.535,0,0,0-3.6-6.086l-63.1,37.31a3.535,3.535,0,0,0,.765,6.424l51.426,15.733,22.688,41.3a.835.835,0,0,0,.073.111,3.525,3.525,0,0,0,5.5.715l26.087-25.5,49.07,15.012a3.535,3.535,0,0,0,4.57-3.38V3.535A3.535,3.535,0,0,0,214.126.464Zm-83.32,115.923a3.537,3.537,0,0,0-.629,2.013v21.625l-15.492-28.2L183.239,40.7Zm6.441,29.016V123.18l17.319,5.3Zm71.592-7.716-69.465-21.252L208.84,16.157Z" transform="translate(-53.999 0)"/></g><g transform="translate(19.09 121.838)"><path class="a" d="M93.036,345.684a3.536,3.536,0,0,0-5,0l-33,33a3.535,3.535,0,0,0,5,5l33-33A3.535,3.535,0,0,0,93.036,345.684Z" transform="translate(-53.999 -344.648)"/></g><g transform="translate(0 165.799)"><path class="a" d="M14.166,470.036a3.536,3.536,0,0,0-5,0l-8.131,8.131a3.535,3.535,0,1,0,5,5l8.131-8.131A3.536,3.536,0,0,0,14.166,470.036Z" transform="translate(0 -469.001)"/></g><g transform="translate(44.395 173.721)"><path class="a" d="M131.614,492.446a3.533,3.533,0,1,0,1.036,2.5A3.561,3.561,0,0,0,131.614,492.446Z" transform="translate(-125.58 -491.41)"/></g><g transform="translate(53.216 147.418)"><path class="a" d="M174.049,418.042a3.535,3.535,0,0,0-5,0l-17.48,17.48a3.535,3.535,0,1,0,5,5l17.48-17.48A3.535,3.535,0,0,0,174.049,418.042Z" transform="translate(-150.534 -417.006)"/></g><g transform="translate(113.498 146.076)"><path class="a" d="M344.615,414.246a3.536,3.536,0,0,0-5,0l-17.527,17.527a3.535,3.535,0,1,0,5,5l17.527-17.527A3.536,3.536,0,0,0,344.615,414.246Z" transform="translate(-321.053 -413.211)"/></g><g transform="translate(94.187 47.152)"><path class="a" d="M272.465,134.416a3.533,3.533,0,1,0,1.036,2.5A3.562,3.562,0,0,0,272.465,134.416Z" transform="translate(-266.43 -133.38)"/></g></g></svg>