<svg xmlns="http://www.w3.org/2000/svg" xmlns:xlink="http://www.w3.org/1999/xlink" width="154" height="20.86" viewBox="0 0 154 20.86"><defs><style>.a{fill:#e5dedc;}.b{fill:#a1a2a4;}.c{fill:#a5a5a5;}.d{fill:url(#a);}.e{fill:url(#b);}</style><linearGradient id="a" x1="0.037" y1="-0.258" x2="0.94" y2="1.316" gradientUnits="objectBoundingBox"><stop offset="0" stop-color="#a7a5a3"/><stop offset="0.05" stop-color="#c6c5c3"/><stop offset="0.11" stop-color="#dfdedd"/><stop offset="0.17" stop-color="#f1f0f0"/><stop offset="0.22" stop-color="#fbfbfb"/><stop offset="0.29" stop-color="#fff"/><stop offset="0.51" stop-color="#fdfdfc"/><stop offset="0.65" stop-color="#f5f4f4"/><stop offset="0.76" stop-color="#e7e6e6"/><stop offset="0.86" stop-color="#d4d3d2"/><stop offset="0.94" stop-color="#bbb9b8"/><stop offset="1" stop-color="#a7a5a3"/></linearGradient><linearGradient id="b" x1="0.5" y1="0.997" x2="0.5" y2="-0.003" gradientUnits="objectBoundingBox"><stop offset="0.01" stop-color="#d8d9d7"/><stop offset="0.19" stop-color="#d1d2d0"/><stop offset="0.46" stop-color="#bdbebc"/><stop offset="0.78" stop-color="#9d9e9c"/><stop offset="1" stop-color="#828482"/></linearGradient></defs><g transform="translate(-14.167 -174.21)"><path class="a" d="M232.707,190.271c-.926-5.009,3.667-10.548,9.458-12.15,6.739-1.358,12.406,1.233,13.435,6.4.72,5.05-3.173,10.347-9.7,11.865-6.177,1.146-12.126-1.068-13.193-6.117Zm8.676-6.077c-2.257,2.572-2.841,5.93-1.3,7.492s4.618.744,6.872-1.828,2.839-5.93,1.3-7.492S243.64,181.62,241.383,184.195Zm-31.347-.978a1.749,1.749,0,0,0-.978-1.513,5.749,5.749,0,0,0-2.651-.492h-1.173l-1.114,5.224h.94a7.046,7.046,0,0,0,3.754-.828,2.477,2.477,0,0,0,1.222-2.39ZM197.2,195.949s-1.757.079-1.518-1.592L198.738,180a1.95,1.95,0,0,1,1.815-1.5h7.4a24.527,24.527,0,0,1,3.558.242,9.193,9.193,0,0,1,2.67.785,4.58,4.58,0,0,1,1.755,1.453,4.8,4.8,0,0,1,.714,2.369,5.13,5.13,0,0,1-2.763,4.87c-1.964,1.239-4.786,1.706-8.464,1.706h-2.035l-1.3,6.019Zm-28.631-12.8a1.676,1.676,0,0,0-.9-1.489,5.183,5.183,0,0,0-2.4-.445H163.6l-1.005,4.7h1.652a6.105,6.105,0,0,0,3.273-.723A2.143,2.143,0,0,0,168.57,183.146Zm-8.114,12.8h-4.985a1.323,1.323,0,0,1-1.434-1.592L157.1,180a1.948,1.948,0,0,1,1.815-1.491h8.434a21.568,21.568,0,0,1,3.2.212,7.924,7.924,0,0,1,2.409.728,3.8,3.8,0,0,1,2.23,3.4,4.6,4.6,0,0,1-2.5,4.5,11.436,11.436,0,0,1-4.458,1.016s-.557.125.084.288a3.922,3.922,0,0,1,1.44.78c1.4,1.111,2.42,2.257,5.585,6.519h-7.478a57.81,57.81,0,0,0-3.958-6.441,2.155,2.155,0,0,0-1.918-.752l-1.532,7.182Zm103.529-3.368h6.041l-.416,1.939a1.915,1.915,0,0,1-1.8,1.429h-9.5a1.324,1.324,0,0,1-1.434-1.592L259.949,180a1.953,1.953,0,0,1,1.815-1.491h5.248L264,192.589Zm-78.278-6.935h7.929l-.4,1.831a1.948,1.948,0,0,1-1.809,1.5H185l-.774,3.607h7.94l-.416,1.939a1.918,1.918,0,0,1-1.793,1.429H178.548a1.325,1.325,0,0,1-1.434-1.592L180.172,180a1.948,1.948,0,0,1,1.817-1.494h13.18l-.413,1.866a1.95,1.95,0,0,1-1.812,1.5h-6.438l-.815,3.776Zm48.623-7.139-.4,1.869a1.88,1.88,0,0,1-1.815,1.494H231.7c-3.77.014-4.009,1.04-4.732,4.539l-.9,4.153a6.427,6.427,0,0,1-6.28,5.389H210.24l.4-1.872a1.929,1.929,0,0,1,1.815-1.5h2.3c3.77,0,4.009-1.035,4.729-4.534l.9-4.153c1.135-5.27,6.886-5.387,7.769-5.387Z" transform="translate(-101.86 -2.588)"/><path class="b" d="M18.7,213.788a11.355,11.355,0,0,1,.185-1.2h-.033c-.6.063-1.54.133-2.236.223a11.914,11.914,0,0,0-2.423.432c-.253.3,1.418.516,3.966.543Z" transform="translate(0 -27.955)"/><path class="c" d="M31.532,174.21a13.407,13.407,0,0,0-10.431,5.6s-5.7.41-6,.915a12.487,12.487,0,0,0-.921,4.618h0a.1.1,0,0,1,.022-.035,11.961,11.961,0,0,1,2.423-.432c.7-.09,1.63-.16,2.236-.223h.033c1.98-.2,5.759-.464,7.916-.524,5.291-.147,9.858-.106,13.022.038C40.752,178.613,37.125,174.21,31.532,174.21Z" transform="translate(-0.009 0)"/><path class="c" d="M50.976,227.927c-1.63-.016-7.652-.062-10.322.022l-1.279.046c-2.89.117-5.335.3-7.334.5h0a8.045,8.045,0,0,0,8.07,5.683A13.484,13.484,0,0,0,50.976,227.927Z" transform="translate(-13.018 -39.105)"/><path class="d" d="M51.869,210.437c-3.165-.144-7.728-.187-13.02-.041-2.173.06-5.941.331-7.921.527h0c-.046.22-.117.581-.171,1.059a.092.092,0,0,1,0,.027q-.03.244-.041.489v.03c0,.158-.016.315-.016.47v.532c0,.174.019.345.035.511a1.225,1.225,0,0,0,.019.144c.014.13.03.272.052.391a1.027,1.027,0,0,0,.027.155c.022.125.046.25.073.369a.508.508,0,0,0,.035.144c.03.128.062.253.1.375a.455.455,0,0,0,.019.065c1.991-.2,4.439-.38,7.334-.5l1.279-.046c2.678-.084,8.692-.038,10.322-.022h.418c1.358.024,1.926.035,3.352.111a5.915,5.915,0,0,1,1.806.217h0a11.481,11.481,0,0,0,.915-4.428c.046-.239-1.676-.473-4.618-.606" transform="translate(-12.042 -26.291)"/><g transform="translate(19.508 188.805)"><path class="b" d="M52.766,227.957A13.512,13.512,0,0,1,41.9,234.2a8.817,8.817,0,0,1-4.963-1.429,7.712,7.712,0,0,1-3.108-4.243h0c1.991-.2,4.439-.38,7.334-.5l1.282-.043c2.676-.087,8.692-.041,10.322-.024Z" transform="translate(-33.83 -227.941)"/></g><g transform="translate(21.097 174.21)"><path class="a" d="M56.88,179.537h1.192a8.066,8.066,0,0,0-7.962-5.327,13.411,13.411,0,0,0-10.431,5.6c1.76-.163,4.075-.3,6.313-.334a2.219,2.219,0,0,0,1.76-.891c.88-1.309,1.749-2.635,2.988-3.075l.065-.027C52.678,174.77,55.161,176.516,56.88,179.537Z" transform="translate(-39.68 -174.21)"/></g><g transform="translate(19.992 188.797)"><path class="a" d="M53.576,227.934l-1.9-.016c-1.918,0-4.716-.019-6.712,0a4.7,4.7,0,0,0-1.173,1.358c-1.554,2.646-2.1,5.218-6.894,1.29a5.672,5.672,0,0,0-1.285.03,7.627,7.627,0,0,0,2.007,2.054c.057.038.109.071.147.1.09.06.179.12.272.174a8.874,8.874,0,0,0,4.675,1.258A13.491,13.491,0,0,0,53.576,227.934Z" transform="translate(-35.61 -227.909)"/></g><path class="e" d="M105.283,228.369a5.723,5.723,0,0,0-1.8-.217c-1.426-.076-1.986-.087-3.355-.111H99.7q-.356.543-.763,1.057h0c3.759-.114,6.248-.378,6.34-.72C105.285,228.366,105.283,228.374,105.283,228.369Z" transform="translate(-61.745 -39.208)"/></g></svg>