<svg xmlns="http://www.w3.org/2000/svg" width="60" height="60" viewBox="0 0 60 60"><defs><style>.a{fill:#56acab;}</style></defs><path class="a" d="M31.883,60H28.117a5.53,5.53,0,0,1-5.524-5.523V53.2a24.222,24.222,0,0,1-3.761-1.561l-.9.9a5.523,5.523,0,0,1-7.812,0L7.456,49.882a5.523,5.523,0,0,1,0-7.812l.9-.9A24.224,24.224,0,0,1,6.8,37.406H5.523A5.53,5.53,0,0,1,0,31.883V28.117a5.53,5.53,0,0,1,5.524-5.523H6.8a24.229,24.229,0,0,1,1.561-3.761l-.9-.9a5.523,5.523,0,0,1,0-7.812l2.662-2.662a5.523,5.523,0,0,1,7.812,0l.9.9A24.245,24.245,0,0,1,22.594,6.8V5.523A5.53,5.53,0,0,1,28.117,0h3.766a5.53,5.53,0,0,1,5.523,5.523V6.8a24.222,24.222,0,0,1,3.761,1.561l.9-.9a5.523,5.523,0,0,1,7.812,0l2.661,2.661a5.523,5.523,0,0,1,0,7.812l-.9.9A24.225,24.225,0,0,1,53.2,22.594h1.274A5.53,5.53,0,0,1,60,28.117v3.766a5.53,5.53,0,0,1-5.524,5.523H53.2a24.23,24.23,0,0,1-1.561,3.761l.9.9a5.523,5.523,0,0,1,0,7.812l-2.662,2.662a5.523,5.523,0,0,1-7.812,0l-.9-.9A24.244,24.244,0,0,1,37.406,53.2v1.274A5.53,5.53,0,0,1,31.883,60ZM19.42,47.95a20.72,20.72,0,0,0,5.371,2.229,1.758,1.758,0,0,1,1.319,1.7v2.6a2.01,2.01,0,0,0,2.008,2.008h3.766a2.01,2.01,0,0,0,2.008-2.008v-2.6a1.758,1.758,0,0,1,1.319-1.7A20.72,20.72,0,0,0,40.58,47.95a1.758,1.758,0,0,1,2.138.27l1.838,1.839a2.007,2.007,0,0,0,2.839,0L50.059,47.4a2.007,2.007,0,0,0,0-2.839L48.22,42.718a1.758,1.758,0,0,1-.27-2.138,20.717,20.717,0,0,0,2.229-5.371,1.758,1.758,0,0,1,1.7-1.318h2.6a2.01,2.01,0,0,0,2.008-2.008V28.117a2.01,2.01,0,0,0-2.008-2.008h-2.6a1.758,1.758,0,0,1-1.7-1.318A20.721,20.721,0,0,0,47.95,19.42a1.758,1.758,0,0,1,.27-2.138l1.839-1.839a2.007,2.007,0,0,0,0-2.839L47.4,9.942a2.007,2.007,0,0,0-2.839,0l-1.839,1.839a1.758,1.758,0,0,1-2.138.27,20.72,20.72,0,0,0-5.371-2.229,1.758,1.758,0,0,1-1.319-1.7v-2.6a2.01,2.01,0,0,0-2.008-2.008H28.117A2.01,2.01,0,0,0,26.11,5.523v2.6a1.758,1.758,0,0,1-1.319,1.7A20.72,20.72,0,0,0,19.42,12.05a1.758,1.758,0,0,1-2.138-.27L15.444,9.942a2.007,2.007,0,0,0-2.839,0L9.942,12.6a2.007,2.007,0,0,0,0,2.839l1.839,1.839a1.758,1.758,0,0,1,.27,2.138,20.717,20.717,0,0,0-2.229,5.371,1.758,1.758,0,0,1-1.7,1.318h-2.6a2.01,2.01,0,0,0-2.008,2.008v3.766a2.01,2.01,0,0,0,2.008,2.008h2.6a1.758,1.758,0,0,1,1.7,1.318A20.72,20.72,0,0,0,12.05,40.58a1.758,1.758,0,0,1-.27,2.138L9.942,44.556a2.007,2.007,0,0,0,0,2.839L12.6,50.058a2.007,2.007,0,0,0,2.839,0l1.839-1.839A1.766,1.766,0,0,1,19.42,47.95Z"/><path class="a" d="M155.412,166.224a10.812,10.812,0,1,1,10.812-10.812A10.824,10.824,0,0,1,155.412,166.224Zm0-18.712a7.9,7.9,0,1,0,7.9,7.9A7.909,7.909,0,0,0,155.412,147.512Z" transform="translate(-125.412 -125.412)"/></svg>