<svg xmlns="http://www.w3.org/2000/svg" width="153.611" height="44.246" viewBox="0 0 153.611 44.246"><defs><style>.a{fill:#d7d7d7;}.a,.b,.c,.d{fill-rule:evenodd;}.b{fill:#cfcece;}.c{fill:#eaeaea;}.d,.e{fill:#e4dede;}.e{font-size:3px;font-family:Tahoma;}</style></defs><g transform="translate(-240.88 -197.05)"><path class="a" d="M263,197.05a22.123,22.123,0,1,0,22.123,22.122v-.031a15.49,15.49,0,1,1-.006-.452A22.121,22.121,0,0,0,263,197.05Z" transform="translate(0)"/><path class="b" d="M329.147,227.86a15.471,15.471,0,0,1,0,30.939,15.171,15.171,0,0,1-12.867-7.183,9.532,9.532,0,1,0,.075-16.689A15.162,15.162,0,0,1,329.147,227.86Z" transform="translate(-59.257 -24.214)"/><path class="c" d="M326.52,229c6.879.06,13.231,6.637,13.231,15.13S333.97,259.5,326.86,259.5a15.262,15.262,0,0,1-10.51-6.98,9.532,9.532,0,1,0,.079-16.7A15.383,15.383,0,0,1,326.52,229Z" transform="translate(-59.312 -25.11)"/><path class="d" d="M489.58,238.88H495.9v6.637h5.665l-2.725,5.239H495.9v7.982c0,1.33.869,1.833,1.713,1.608l1.713-.565,1.657,3.762-2.141,1.216a6.111,6.111,0,0,1-2.931.452,6.873,6.873,0,0,1-4.71-1.732,4.918,4.918,0,0,1-1.621-3.841Z" transform="translate(-195.454 -32.874)"/><path class="d" d="M559.364,284.967a3.6,3.6,0,0,1-4.52-1.07,2.7,2.7,0,0,1-.6-1.674c3.286-.143,6.312-.762,8.5-2.91a5.567,5.567,0,0,0,.032-7.174c-2.372-2.494-5.34-2.67-8.6-1.713a9.663,9.663,0,0,0-5.847,6.731,11.688,11.688,0,0,0,2.244,10.116,7.864,7.864,0,0,0,5.8,2.21,16.347,16.347,0,0,0,7.57-1.672l-1.486-4.079Zm-4.055-10.131a2.218,2.218,0,0,1,2.813-.514c.963.925.34,2.034-.49,2.743a7.214,7.214,0,0,1-3.762,1.533A5.639,5.639,0,0,1,555.309,274.836Z" transform="translate(-241.396 -57.243)"/><path class="d" d="M803.417,284.967a3.6,3.6,0,0,1-4.522-1.07,2.711,2.711,0,0,1-.6-1.674c3.286-.143,6.312-.762,8.5-2.91a5.566,5.566,0,0,0,.032-7.174c-2.372-2.494-5.34-2.67-8.6-1.713a9.663,9.663,0,0,0-5.847,6.731,11.688,11.688,0,0,0,2.244,10.116,7.864,7.864,0,0,0,5.8,2.21A16.347,16.347,0,0,0,808,287.81q-.741-2.04-1.486-4.079Zm-4.068-10.123a2.218,2.218,0,0,1,2.813-.514c.963.925.34,2.034-.49,2.743a7.215,7.215,0,0,1-3.762,1.533,5.655,5.655,0,0,1,1.449-3.77Z" transform="translate(-433.195 -57.243)"/><path class="d" d="M634.85,269.89v19.7h6.56v-13.06a3.265,3.265,0,0,1,2.826-1.4,4.267,4.267,0,0,1,2.982,1.182v-5.235a4.067,4.067,0,0,0-2.905-1.182c-2.233,0-3.1,1.028-4.164,2.424V269.89Z" transform="translate(-309.622 -57.245)"/><path class="d" d="M878.347,238.88h6.658v19.86c0,1.33.916,1.833,1.807,1.608l1.548-.488,1.676,3.854-1.944,1.045a6.748,6.748,0,0,1-3.087.452,7.426,7.426,0,0,1-4.952-1.732,4.813,4.813,0,0,1-1.713-3.841Z" transform="translate(-500.979 -32.874)"/><path class="d" d="M719.638,275.559c-1.631-4.95-4.258-5.669-10.05-5.669a20.927,20.927,0,0,0-6.449,1.261v25.4h6.449v-7.519a8.774,8.774,0,0,0,3.329.546,6.62,6.62,0,0,0,5.22-3.038A14.181,14.181,0,0,0,719.638,275.559Zm-6.894,8.271a2.915,2.915,0,0,1-3.149.49v-9.671a2.573,2.573,0,0,1,2.86.2,7.225,7.225,0,0,1,.289,8.979Z" transform="translate(-363.291 -57.245)"/><path class="d" d="M929.625,234.66a3.445,3.445,0,1,0,3.445,3.445A3.445,3.445,0,0,0,929.625,234.66Zm0,6.038a2.569,2.569,0,1,1,2.569-2.569,2.569,2.569,0,0,1-2.569,2.569Z" transform="translate(-538.578 -29.558)"/><text class="e" transform="translate(389.648 208.622)"><tspan x="0" y="0">R</tspan></text></g></svg>